  0
SECTION
  2
BLOCKS
  0
ENDSEC
  0
SECTION
  2
ENTITIES
  0
LINE
  8
0
 10
-66
 20
63.0168
 11
-35.0533
 21
81.3715
  0
LINE
  8
0
 10
-35.0533
 20
81.3715
 11
35.0533
 21
81.3715
  0
LINE
  8
0
 10
35.0533
 20
81.3715
 11
66
 21
63.0168
  0
LINE
  8
0
 10
66
 20
63.0168
 11
77.196
 21
46.5941
  0
LINE
  8
0
 10
77.196
 20
46.5941
 11
95.4133
 21
46.5941
  0
LINE
  8
0
 10
95.4133
 20
46.5941
 11
105.174
 21
58.2608
  0
LINE
  8
0
 10
105.174
 20
58.2608
 11
105.174
 21
69.9275
  0
LINE
  8
0
 10
105.174
 20
69.9275
 11
95.5647
 21
81.5941
  0
LINE
  8
0
 10
95.5647
 20
81.5941
 11
95.5647
 21
93.2608
  0
LINE
  8
0
 10
95.5647
 20
93.2608
 11
105.174
 21
101.426
  0
LINE
  8
0
 10
105.174
 20
101.426
 11
105.174
 21
113.299
  0
LINE
  8
0
 10
105.174
 20
113.299
 11
-105.174
 21
113.299
  0
LINE
  8
0
 10
-105.174
 20
113.299
 11
-105.174
 21
101.426
  0
LINE
  8
0
 10
-105.174
 20
101.426
 11
-101.217
 21
99.7601
  0
LINE
  8
0
 10
-101.217
 20
99.7601
 11
-95.5647
 21
93.2608
  0
LINE
  8
0
 10
-95.5647
 20
93.2608
 11
-95.5647
 21
81.5941
  0
LINE
  8
0
 10
-95.5647
 20
81.5941
 11
-105.174
 21
69.9275
  0
LINE
  8
0
 10
-105.174
 20
69.9275
 11
-105.174
 21
58.2608
  0
LINE
  8
0
 10
-105.174
 20
58.2608
 11
-95.4133
 21
46.5941
  0
LINE
  8
0
 10
-95.4133
 20
46.5941
 11
-77.196
 21
46.5941
  0
LINE
  8
0
 10
-77.196
 20
46.5941
 11
-66
 21
63.0168
  0
LINE
  8
0
 10
-91.2228
 20
103.122
 11
-92.6518
 21
103.743
  0
LINE
  8
0
 10
-92.6518
 20
103.743
 11
-93.2228
 21
105.122
  0
LINE
  8
0
 10
-93.2228
 20
105.122
 11
-93.2228
 21
109.322
  0
LINE
  8
0
 10
-93.2228
 20
109.322
 11
-92.637
 21
110.736
  0
LINE
  8
0
 10
-92.637
 20
110.736
 11
-91.2228
 21
111.322
  0
LINE
  8
0
 10
-91.2228
 20
111.322
 11
-75.2228
 21
111.322
  0
LINE
  8
0
 10
-75.2228
 20
111.322
 11
-73.8086
 21
110.736
  0
LINE
  8
0
 10
-73.8086
 20
110.736
 11
-73.2228
 21
109.322
  0
LINE
  8
0
 10
-73.2228
 20
109.322
 11
-73.2228
 21
105.122
  0
LINE
  8
0
 10
-73.2228
 20
105.122
 11
-73.7938
 21
103.743
  0
LINE
  8
0
 10
-73.7938
 20
103.743
 11
-75.2228
 21
103.122
  0
LINE
  8
0
 10
-75.2228
 20
103.122
 11
-91.2228
 21
103.122
  0
LINE
  8
0
 10
75.267
 20
103.122
 11
73.838
 21
103.743
  0
LINE
  8
0
 10
73.838
 20
103.743
 11
73.267
 21
105.122
  0
LINE
  8
0
 10
73.267
 20
105.122
 11
73.267
 21
109.322
  0
LINE
  8
0
 10
73.267
 20
109.322
 11
73.8528
 21
110.736
  0
LINE
  8
0
 10
73.8528
 20
110.736
 11
75.267
 21
111.322
  0
LINE
  8
0
 10
75.267
 20
111.322
 11
91.267
 21
111.322
  0
LINE
  8
0
 10
91.267
 20
111.322
 11
92.6812
 21
110.736
  0
LINE
  8
0
 10
92.6812
 20
110.736
 11
93.267
 21
109.322
  0
LINE
  8
0
 10
93.267
 20
109.322
 11
93.267
 21
105.122
  0
LINE
  8
0
 10
93.267
 20
105.122
 11
92.696
 21
103.743
  0
LINE
  8
0
 10
92.696
 20
103.743
 11
91.267
 21
103.122
  0
LINE
  8
0
 10
91.267
 20
103.122
 11
75.267
 21
103.122
  0
LINE
  8
0
 10
14.4268
 20
50.9639
 11
16.1105
 21
51.4151
  0
LINE
  8
0
 10
16.1105
 20
51.4151
 11
17.6903
 21
52.1517
  0
LINE
  8
0
 10
17.6903
 20
52.1517
 11
19.1182
 21
53.1515
  0
LINE
  8
0
 10
19.1182
 20
53.1515
 11
20.3508
 21
54.3841
  0
LINE
  8
0
 10
20.3508
 20
54.3841
 11
21.3506
 21
55.812
  0
LINE
  8
0
 10
21.3506
 20
55.812
 11
22.0873
 21
57.3918
  0
LINE
  8
0
 10
22.0873
 20
57.3918
 11
22.5384
 21
59.0755
  0
LINE
  8
0
 10
22.5384
 20
59.0755
 11
22.6903
 21
60.812
  0
LINE
  8
0
 10
22.6903
 20
60.812
 11
22.5384
 21
62.5485
  0
LINE
  8
0
 10
22.5384
 20
62.5485
 11
22.0873
 21
64.2322
  0
LINE
  8
0
 10
22.0873
 20
64.2322
 11
21.3506
 21
65.812
  0
LINE
  8
0
 10
21.3506
 20
65.812
 11
20.3508
 21
67.2399
  0
LINE
  8
0
 10
20.3508
 20
67.2399
 11
19.1182
 21
68.4724
  0
LINE
  8
0
 10
19.1182
 20
68.4724
 11
17.6903
 21
69.4722
  0
LINE
  8
0
 10
17.6903
 20
69.4722
 11
16.1105
 21
70.2089
  0
LINE
  8
0
 10
16.1105
 20
70.2089
 11
14.4268
 21
70.6601
  0
LINE
  8
0
 10
14.4268
 20
70.6601
 11
12.6903
 21
70.812
  0
LINE
  8
0
 10
12.6903
 20
70.812
 11
10.9539
 21
70.6601
  0
LINE
  8
0
 10
10.9539
 20
70.6601
 11
9.27013
 21
70.2089
  0
LINE
  8
0
 10
9.27013
 20
70.2089
 11
7.69034
 21
69.4722
  0
LINE
  8
0
 10
7.69034
 20
69.4722
 11
6.26245
 21
68.4724
  0
LINE
  8
0
 10
6.26245
 20
68.4724
 11
5.02989
 21
67.2399
  0
LINE
  8
0
 10
5.02989
 20
67.2399
 11
4.03008
 21
65.812
  0
LINE
  8
0
 10
4.03008
 20
65.812
 11
3.29341
 21
64.2322
  0
LINE
  8
0
 10
3.29341
 20
64.2322
 11
2.84225
 21
62.5485
  0
LINE
  8
0
 10
2.84225
 20
62.5485
 11
2.69034
 21
60.812
  0
LINE
  8
0
 10
2.69034
 20
60.812
 11
2.84225
 21
59.0755
  0
LINE
  8
0
 10
2.84225
 20
59.0755
 11
3.29341
 21
57.3918
  0
LINE
  8
0
 10
3.29341
 20
57.3918
 11
4.03008
 21
55.812
  0
LINE
  8
0
 10
4.03008
 20
55.812
 11
5.02989
 21
54.3841
  0
LINE
  8
0
 10
5.02989
 20
54.3841
 11
6.26245
 21
53.1515
  0
LINE
  8
0
 10
6.26245
 20
53.1515
 11
7.69034
 21
52.1517
  0
LINE
  8
0
 10
7.69034
 20
52.1517
 11
9.27013
 21
51.4151
  0
LINE
  8
0
 10
9.27013
 20
51.4151
 11
10.9539
 21
50.9639
  0
LINE
  8
0
 10
10.9539
 20
50.9639
 11
12.6903
 21
50.812
  0
LINE
  8
0
 10
12.6903
 20
50.812
 11
14.4268
 21
50.9639
  0
LINE
  8
0
 10
11.7353
 20
55.3955
 11
10.8092
 21
55.6437
  0
LINE
  8
0
 10
10.8092
 20
55.6437
 11
9.94034
 21
56.0488
  0
LINE
  8
0
 10
9.94034
 20
56.0488
 11
9.155
 21
56.5987
  0
LINE
  8
0
 10
9.155
 20
56.5987
 11
8.4771
 21
57.2766
  0
LINE
  8
0
 10
8.4771
 20
57.2766
 11
7.9272
 21
58.062
  0
LINE
  8
0
 10
7.9272
 20
58.062
 11
7.52202
 21
58.9309
  0
LINE
  8
0
 10
7.52202
 20
58.9309
 11
7.2739
 21
59.8569
  0
LINE
  8
0
 10
7.2739
 20
59.8569
 11
7.19034
 21
60.812
  0
LINE
  8
0
 10
7.19034
 20
60.812
 11
7.2739
 21
61.767
  0
LINE
  8
0
 10
7.2739
 20
61.767
 11
7.52202
 21
62.6931
  0
LINE
  8
0
 10
7.52202
 20
62.6931
 11
7.9272
 21
63.562
  0
LINE
  8
0
 10
7.9272
 20
63.562
 11
8.4771
 21
64.3473
  0
LINE
  8
0
 10
8.4771
 20
64.3473
 11
9.155
 21
65.0252
  0
LINE
  8
0
 10
9.155
 20
65.0252
 11
9.94034
 21
65.5751
  0
LINE
  8
0
 10
9.94034
 20
65.5751
 11
10.8092
 21
65.9803
  0
LINE
  8
0
 10
10.8092
 20
65.9803
 11
11.7353
 21
66.2284
  0
LINE
  8
0
 10
11.7353
 20
66.2284
 11
12.6903
 21
66.312
  0
LINE
  8
0
 10
12.6903
 20
66.312
 11
13.6454
 21
66.2284
  0
LINE
  8
0
 10
13.6454
 20
66.2284
 11
14.5714
 21
65.9803
  0
LINE
  8
0
 10
14.5714
 20
65.9803
 11
15.4403
 21
65.5751
  0
LINE
  8
0
 10
15.4403
 20
65.5751
 11
16.2257
 21
65.0252
  0
LINE
  8
0
 10
16.2257
 20
65.0252
 11
16.9036
 21
64.3473
  0
LINE
  8
0
 10
16.9036
 20
64.3473
 11
17.4535
 21
63.562
  0
LINE
  8
0
 10
17.4535
 20
63.562
 11
17.8586
 21
62.6931
  0
LINE
  8
0
 10
17.8586
 20
62.6931
 11
18.1068
 21
61.767
  0
LINE
  8
0
 10
18.1068
 20
61.767
 11
18.1903
 21
60.812
  0
LINE
  8
0
 10
18.1903
 20
60.812
 11
18.1068
 21
59.8569
  0
LINE
  8
0
 10
18.1068
 20
59.8569
 11
17.8586
 21
58.9309
  0
LINE
  8
0
 10
17.8586
 20
58.9309
 11
17.4535
 21
58.062
  0
LINE
  8
0
 10
17.4535
 20
58.062
 11
16.9036
 21
57.2766
  0
LINE
  8
0
 10
16.9036
 20
57.2766
 11
16.2257
 21
56.5987
  0
LINE
  8
0
 10
16.2257
 20
56.5987
 11
15.4403
 21
56.0488
  0
LINE
  8
0
 10
15.4403
 20
56.0488
 11
14.5714
 21
55.6437
  0
LINE
  8
0
 10
14.5714
 20
55.6437
 11
13.6454
 21
55.3955
  0
LINE
  8
0
 10
13.6454
 20
55.3955
 11
12.6903
 21
55.312
  0
LINE
  8
0
 10
12.6903
 20
55.312
 11
11.7353
 21
55.3955
  0
LINE
  8
0
 10
39.4193
 20
50.9515
 11
41.103
 21
51.4027
  0
LINE
  8
0
 10
41.103
 20
51.4027
 11
42.6828
 21
52.1394
  0
LINE
  8
0
 10
42.6828
 20
52.1394
 11
44.1107
 21
53.1392
  0
LINE
  8
0
 10
44.1107
 20
53.1392
 11
45.3432
 21
54.3717
  0
LINE
  8
0
 10
45.3432
 20
54.3717
 11
46.343
 21
55.7996
  0
LINE
  8
0
 10
46.343
 20
55.7996
 11
47.0797
 21
57.3794
  0
LINE
  8
0
 10
47.0797
 20
57.3794
 11
47.5309
 21
59.0631
  0
LINE
  8
0
 10
47.5309
 20
59.0631
 11
47.6828
 21
60.7996
  0
LINE
  8
0
 10
47.6828
 20
60.7996
 11
47.5309
 21
62.5361
  0
LINE
  8
0
 10
47.5309
 20
62.5361
 11
47.0797
 21
64.2198
  0
LINE
  8
0
 10
47.0797
 20
64.2198
 11
46.343
 21
65.7996
  0
LINE
  8
0
 10
46.343
 20
65.7996
 11
45.3432
 21
67.2275
  0
LINE
  8
0
 10
45.3432
 20
67.2275
 11
44.1107
 21
68.4601
  0
LINE
  8
0
 10
44.1107
 20
68.4601
 11
42.6828
 21
69.4599
  0
LINE
  8
0
 10
42.6828
 20
69.4599
 11
41.103
 21
70.1965
  0
LINE
  8
0
 10
41.103
 20
70.1965
 11
39.4193
 21
70.6477
  0
LINE
  8
0
 10
39.4193
 20
70.6477
 11
37.6828
 21
70.7996
  0
LINE
  8
0
 10
37.6828
 20
70.7996
 11
35.9463
 21
70.6477
  0
LINE
  8
0
 10
35.9463
 20
70.6477
 11
34.2626
 21
70.1965
  0
LINE
  8
0
 10
34.2626
 20
70.1965
 11
32.6828
 21
69.4599
  0
LINE
  8
0
 10
32.6828
 20
69.4599
 11
31.2549
 21
68.4601
  0
LINE
  8
0
 10
31.2549
 20
68.4601
 11
30.0223
 21
67.2275
  0
LINE
  8
0
 10
30.0223
 20
67.2275
 11
29.0225
 21
65.7996
  0
LINE
  8
0
 10
29.0225
 20
65.7996
 11
28.2859
 21
64.2198
  0
LINE
  8
0
 10
28.2859
 20
64.2198
 11
27.8347
 21
62.5361
  0
LINE
  8
0
 10
27.8347
 20
62.5361
 11
27.6828
 21
60.7996
  0
LINE
  8
0
 10
27.6828
 20
60.7996
 11
27.8347
 21
59.0631
  0
LINE
  8
0
 10
27.8347
 20
59.0631
 11
28.2859
 21
57.3794
  0
LINE
  8
0
 10
28.2859
 20
57.3794
 11
29.0225
 21
55.7996
  0
LINE
  8
0
 10
29.0225
 20
55.7996
 11
30.0223
 21
54.3717
  0
LINE
  8
0
 10
30.0223
 20
54.3717
 11
31.2549
 21
53.1392
  0
LINE
  8
0
 10
31.2549
 20
53.1392
 11
32.6828
 21
52.1394
  0
LINE
  8
0
 10
32.6828
 20
52.1394
 11
34.2626
 21
51.4027
  0
LINE
  8
0
 10
34.2626
 20
51.4027
 11
35.9463
 21
50.9515
  0
LINE
  8
0
 10
35.9463
 20
50.9515
 11
37.6828
 21
50.7996
  0
LINE
  8
0
 10
37.6828
 20
50.7996
 11
39.4193
 21
50.9515
  0
LINE
  8
0
 10
36.7277
 20
55.3832
 11
35.8017
 21
55.6313
  0
LINE
  8
0
 10
35.8017
 20
55.6313
 11
34.9328
 21
56.0365
  0
LINE
  8
0
 10
34.9328
 20
56.0365
 11
34.1474
 21
56.5864
  0
LINE
  8
0
 10
34.1474
 20
56.5864
 11
33.4695
 21
57.2643
  0
LINE
  8
0
 10
33.4695
 20
57.2643
 11
32.9196
 21
58.0496
  0
LINE
  8
0
 10
32.9196
 20
58.0496
 11
32.5145
 21
58.9185
  0
LINE
  8
0
 10
32.5145
 20
58.9185
 11
32.2663
 21
59.8446
  0
LINE
  8
0
 10
32.2663
 20
59.8446
 11
32.1828
 21
60.7996
  0
LINE
  8
0
 10
32.1828
 20
60.7996
 11
32.2663
 21
61.7547
  0
LINE
  8
0
 10
32.2663
 20
61.7547
 11
32.5145
 21
62.6807
  0
LINE
  8
0
 10
32.5145
 20
62.6807
 11
32.9196
 21
63.5496
  0
LINE
  8
0
 10
32.9196
 20
63.5496
 11
33.4695
 21
64.335
  0
LINE
  8
0
 10
33.4695
 20
64.335
 11
34.1474
 21
65.0129
  0
LINE
  8
0
 10
34.1474
 20
65.0129
 11
34.9328
 21
65.5628
  0
LINE
  8
0
 10
34.9328
 20
65.5628
 11
35.8017
 21
65.9679
  0
LINE
  8
0
 10
35.8017
 20
65.9679
 11
36.7277
 21
66.2161
  0
LINE
  8
0
 10
36.7277
 20
66.2161
 11
37.6828
 21
66.2996
  0
LINE
  8
0
 10
37.6828
 20
66.2996
 11
38.6378
 21
66.2161
  0
LINE
  8
0
 10
38.6378
 20
66.2161
 11
39.5639
 21
65.9679
  0
LINE
  8
0
 10
39.5639
 20
65.9679
 11
40.4328
 21
65.5628
  0
LINE
  8
0
 10
40.4328
 20
65.5628
 11
41.2181
 21
65.0129
  0
LINE
  8
0
 10
41.2181
 20
65.0129
 11
41.896
 21
64.335
  0
LINE
  8
0
 10
41.896
 20
64.335
 11
42.4459
 21
63.5496
  0
LINE
  8
0
 10
42.4459
 20
63.5496
 11
42.8511
 21
62.6807
  0
LINE
  8
0
 10
42.8511
 20
62.6807
 11
43.0992
 21
61.7547
  0
LINE
  8
0
 10
43.0992
 20
61.7547
 11
43.1828
 21
60.7996
  0
LINE
  8
0
 10
43.1828
 20
60.7996
 11
43.0992
 21
59.8446
  0
LINE
  8
0
 10
43.0992
 20
59.8446
 11
42.8511
 21
58.9185
  0
LINE
  8
0
 10
42.8511
 20
58.9185
 11
42.4459
 21
58.0496
  0
LINE
  8
0
 10
42.4459
 20
58.0496
 11
41.896
 21
57.2643
  0
LINE
  8
0
 10
41.896
 20
57.2643
 11
41.2181
 21
56.5864
  0
LINE
  8
0
 10
41.2181
 20
56.5864
 11
40.4328
 21
56.0365
  0
LINE
  8
0
 10
40.4328
 20
56.0365
 11
39.5639
 21
55.6313
  0
LINE
  8
0
 10
39.5639
 20
55.6313
 11
38.6378
 21
55.3832
  0
LINE
  8
0
 10
38.6378
 20
55.3832
 11
37.6828
 21
55.2996
  0
LINE
  8
0
 10
37.6828
 20
55.2996
 11
36.7277
 21
55.3832
  0
LINE
  8
0
 10
-13.1472
 20
50.4537
 11
-11.4635
 21
50.9049
  0
LINE
  8
0
 10
-11.4635
 20
50.9049
 11
-9.88365
 21
51.6416
  0
LINE
  8
0
 10
-9.88365
 20
51.6416
 11
-8.45578
 21
52.6414
  0
LINE
  8
0
 10
-8.45578
 20
52.6414
 11
-7.22321
 21
53.8739
  0
LINE
  8
0
 10
-7.22321
 20
53.8739
 11
-6.2234
 21
55.3018
  0
LINE
  8
0
 10
-6.2234
 20
55.3018
 11
-5.48672
 21
56.8816
  0
LINE
  8
0
 10
-5.48672
 20
56.8816
 11
-5.03557
 21
58.5653
  0
LINE
  8
0
 10
-5.03557
 20
58.5653
 11
-4.88365
 21
60.3018
  0
LINE
  8
0
 10
-4.88365
 20
60.3018
 11
-5.03557
 21
62.0383
  0
LINE
  8
0
 10
-5.03557
 20
62.0383
 11
-5.48672
 21
63.722
  0
LINE
  8
0
 10
-5.48672
 20
63.722
 11
-6.2234
 21
65.3018
  0
LINE
  8
0
 10
-6.2234
 20
65.3018
 11
-7.22321
 21
66.7297
  0
LINE
  8
0
 10
-7.22321
 20
66.7297
 11
-8.45578
 21
67.9623
  0
LINE
  8
0
 10
-8.45578
 20
67.9623
 11
-9.88365
 21
68.9621
  0
LINE
  8
0
 10
-9.88365
 20
68.9621
 11
-11.4635
 21
69.6987
  0
LINE
  8
0
 10
-11.4635
 20
69.6987
 11
-13.1472
 21
70.1499
  0
LINE
  8
0
 10
-13.1472
 20
70.1499
 11
-14.8837
 21
70.3018
  0
LINE
  8
0
 10
-14.8837
 20
70.3018
 11
-16.6201
 21
70.1499
  0
LINE
  8
0
 10
-16.6201
 20
70.1499
 11
-18.3038
 21
69.6987
  0
LINE
  8
0
 10
-18.3038
 20
69.6987
 11
-19.8837
 21
68.9621
  0
LINE
  8
0
 10
-19.8837
 20
68.9621
 11
-21.3115
 21
67.9623
  0
LINE
  8
0
 10
-21.3115
 20
67.9623
 11
-22.5441
 21
66.7297
  0
LINE
  8
0
 10
-22.5441
 20
66.7297
 11
-23.5439
 21
65.3018
  0
LINE
  8
0
 10
-23.5439
 20
65.3018
 11
-24.2806
 21
63.722
  0
LINE
  8
0
 10
-24.2806
 20
63.722
 11
-24.7317
 21
62.0383
  0
LINE
  8
0
 10
-24.7317
 20
62.0383
 11
-24.8837
 21
60.3018
  0
LINE
  8
0
 10
-24.8837
 20
60.3018
 11
-24.7317
 21
58.5653
  0
LINE
  8
0
 10
-24.7317
 20
58.5653
 11
-24.2806
 21
56.8816
  0
LINE
  8
0
 10
-24.2806
 20
56.8816
 11
-23.5439
 21
55.3018
  0
LINE
  8
0
 10
-23.5439
 20
55.3018
 11
-22.5441
 21
53.8739
  0
LINE
  8
0
 10
-22.5441
 20
53.8739
 11
-21.3115
 21
52.6414
  0
LINE
  8
0
 10
-21.3115
 20
52.6414
 11
-19.8837
 21
51.6416
  0
LINE
  8
0
 10
-19.8837
 20
51.6416
 11
-18.3038
 21
50.9049
  0
LINE
  8
0
 10
-18.3038
 20
50.9049
 11
-16.6201
 21
50.4537
  0
LINE
  8
0
 10
-16.6201
 20
50.4537
 11
-14.8837
 21
50.3018
  0
LINE
  8
0
 10
-14.8837
 20
50.3018
 11
-13.1472
 21
50.4537
  0
LINE
  8
0
 10
-15.8387
 20
54.8854
 11
-16.7648
 21
55.1335
  0
LINE
  8
0
 10
-16.7648
 20
55.1335
 11
-17.6337
 21
55.5387
  0
LINE
  8
0
 10
-17.6337
 20
55.5387
 11
-18.419
 21
56.0886
  0
LINE
  8
0
 10
-18.419
 20
56.0886
 11
-19.0969
 21
56.7665
  0
LINE
  8
0
 10
-19.0969
 20
56.7665
 11
-19.6468
 21
57.5518
  0
LINE
  8
0
 10
-19.6468
 20
57.5518
 11
-20.052
 21
58.4207
  0
LINE
  8
0
 10
-20.052
 20
58.4207
 11
-20.3001
 21
59.3467
  0
LINE
  8
0
 10
-20.3001
 20
59.3467
 11
-20.3837
 21
60.3018
  0
LINE
  8
0
 10
-20.3837
 20
60.3018
 11
-20.3001
 21
61.2569
  0
LINE
  8
0
 10
-20.3001
 20
61.2569
 11
-20.052
 21
62.1829
  0
LINE
  8
0
 10
-20.052
 20
62.1829
 11
-19.6468
 21
63.0518
  0
LINE
  8
0
 10
-19.6468
 20
63.0518
 11
-19.0969
 21
63.8371
  0
LINE
  8
0
 10
-19.0969
 20
63.8371
 11
-18.419
 21
64.5151
  0
LINE
  8
0
 10
-18.419
 20
64.5151
 11
-17.6337
 21
65.065
  0
LINE
  8
0
 10
-17.6337
 20
65.065
 11
-16.7648
 21
65.4701
  0
LINE
  8
0
 10
-16.7648
 20
65.4701
 11
-15.8387
 21
65.7183
  0
LINE
  8
0
 10
-15.8387
 20
65.7183
 11
-14.8837
 21
65.8018
  0
LINE
  8
0
 10
-14.8837
 20
65.8018
 11
-13.9286
 21
65.7183
  0
LINE
  8
0
 10
-13.9286
 20
65.7183
 11
-13.0025
 21
65.4701
  0
LINE
  8
0
 10
-13.0025
 20
65.4701
 11
-12.1337
 21
65.065
  0
LINE
  8
0
 10
-12.1337
 20
65.065
 11
-11.3483
 21
64.5151
  0
LINE
  8
0
 10
-11.3483
 20
64.5151
 11
-10.6704
 21
63.8371
  0
LINE
  8
0
 10
-10.6704
 20
63.8371
 11
-10.1205
 21
63.0518
  0
LINE
  8
0
 10
-10.1205
 20
63.0518
 11
-9.71535
 21
62.1829
  0
LINE
  8
0
 10
-9.71535
 20
62.1829
 11
-9.46721
 21
61.2569
  0
LINE
  8
0
 10
-9.46721
 20
61.2569
 11
-9.38365
 21
60.3018
  0
LINE
  8
0
 10
-9.38365
 20
60.3018
 11
-9.46721
 21
59.3467
  0
LINE
  8
0
 10
-9.46721
 20
59.3467
 11
-9.71535
 21
58.4207
  0
LINE
  8
0
 10
-9.71535
 20
58.4207
 11
-10.1205
 21
57.5518
  0
LINE
  8
0
 10
-10.1205
 20
57.5518
 11
-10.6704
 21
56.7665
  0
LINE
  8
0
 10
-10.6704
 20
56.7665
 11
-11.3483
 21
56.0886
  0
LINE
  8
0
 10
-11.3483
 20
56.0886
 11
-12.1337
 21
55.5387
  0
LINE
  8
0
 10
-12.1337
 20
55.5387
 11
-13.0025
 21
55.1335
  0
LINE
  8
0
 10
-13.0025
 20
55.1335
 11
-13.9286
 21
54.8854
  0
LINE
  8
0
 10
-13.9286
 20
54.8854
 11
-14.8837
 21
54.8018
  0
LINE
  8
0
 10
-14.8837
 20
54.8018
 11
-15.8387
 21
54.8854
  0
LINE
  8
0
 10
-39.6816
 20
50.4414
 11
-37.9979
 21
50.8925
  0
LINE
  8
0
 10
-37.9979
 20
50.8925
 11
-36.4181
 21
51.6292
  0
LINE
  8
0
 10
-36.4181
 20
51.6292
 11
-34.9902
 21
52.629
  0
LINE
  8
0
 10
-34.9902
 20
52.629
 11
-33.7576
 21
53.8616
  0
LINE
  8
0
 10
-33.7576
 20
53.8616
 11
-32.7578
 21
55.2895
  0
LINE
  8
0
 10
-32.7578
 20
55.2895
 11
-32.0212
 21
56.8692
  0
LINE
  8
0
 10
-32.0212
 20
56.8692
 11
-31.57
 21
58.553
  0
LINE
  8
0
 10
-31.57
 20
58.553
 11
-31.4181
 21
60.2895
  0
LINE
  8
0
 10
-31.4181
 20
60.2895
 11
-31.57
 21
62.0259
  0
LINE
  8
0
 10
-31.57
 20
62.0259
 11
-32.0212
 21
63.7097
  0
LINE
  8
0
 10
-32.0212
 20
63.7097
 11
-32.7578
 21
65.2895
  0
LINE
  8
0
 10
-32.7578
 20
65.2895
 11
-33.7576
 21
66.7173
  0
LINE
  8
0
 10
-33.7576
 20
66.7173
 11
-34.9902
 21
67.9499
  0
LINE
  8
0
 10
-34.9902
 20
67.9499
 11
-36.4181
 21
68.9497
  0
LINE
  8
0
 10
-36.4181
 20
68.9497
 11
-37.9979
 21
69.6864
  0
LINE
  8
0
 10
-37.9979
 20
69.6864
 11
-39.6816
 21
70.1375
  0
LINE
  8
0
 10
-39.6816
 20
70.1375
 11
-41.4181
 21
70.2895
  0
LINE
  8
0
 10
-41.4181
 20
70.2895
 11
-43.1546
 21
70.1375
  0
LINE
  8
0
 10
-43.1546
 20
70.1375
 11
-44.8383
 21
69.6864
  0
LINE
  8
0
 10
-44.8383
 20
69.6864
 11
-46.4181
 21
68.9497
  0
LINE
  8
0
 10
-46.4181
 20
68.9497
 11
-47.846
 21
67.9499
  0
LINE
  8
0
 10
-47.846
 20
67.9499
 11
-49.0785
 21
66.7173
  0
LINE
  8
0
 10
-49.0785
 20
66.7173
 11
-50.0783
 21
65.2895
  0
LINE
  8
0
 10
-50.0783
 20
65.2895
 11
-50.815
 21
63.7097
  0
LINE
  8
0
 10
-50.815
 20
63.7097
 11
-51.2662
 21
62.0259
  0
LINE
  8
0
 10
-51.2662
 20
62.0259
 11
-51.4181
 21
60.2895
  0
LINE
  8
0
 10
-51.4181
 20
60.2895
 11
-51.2662
 21
58.553
  0
LINE
  8
0
 10
-51.2662
 20
58.553
 11
-50.815
 21
56.8692
  0
LINE
  8
0
 10
-50.815
 20
56.8692
 11
-50.0783
 21
55.2895
  0
LINE
  8
0
 10
-50.0783
 20
55.2895
 11
-49.0785
 21
53.8616
  0
LINE
  8
0
 10
-49.0785
 20
53.8616
 11
-47.846
 21
52.629
  0
LINE
  8
0
 10
-47.846
 20
52.629
 11
-46.4181
 21
51.6292
  0
LINE
  8
0
 10
-46.4181
 20
51.6292
 11
-44.8383
 21
50.8925
  0
LINE
  8
0
 10
-44.8383
 20
50.8925
 11
-43.1546
 21
50.4414
  0
LINE
  8
0
 10
-43.1546
 20
50.4414
 11
-41.4181
 21
50.2895
  0
LINE
  8
0
 10
-41.4181
 20
50.2895
 11
-39.6816
 21
50.4414
  0
LINE
  8
0
 10
-42.3732
 20
54.873
 11
-43.2992
 21
55.1211
  0
LINE
  8
0
 10
-43.2992
 20
55.1211
 11
-44.1681
 21
55.5263
  0
LINE
  8
0
 10
-44.1681
 20
55.5263
 11
-44.9534
 21
56.0762
  0
LINE
  8
0
 10
-44.9534
 20
56.0762
 11
-45.6313
 21
56.7541
  0
LINE
  8
0
 10
-45.6313
 20
56.7541
 11
-46.1812
 21
57.5395
  0
LINE
  8
0
 10
-46.1812
 20
57.5395
 11
-46.5864
 21
58.4083
  0
LINE
  8
0
 10
-46.5864
 20
58.4083
 11
-46.8345
 21
59.3344
  0
LINE
  8
0
 10
-46.8345
 20
59.3344
 11
-46.9181
 21
60.2895
  0
LINE
  8
0
 10
-46.9181
 20
60.2895
 11
-46.8345
 21
61.2445
  0
LINE
  8
0
 10
-46.8345
 20
61.2445
 11
-46.5864
 21
62.1706
  0
LINE
  8
0
 10
-46.5864
 20
62.1706
 11
-46.1812
 21
63.0395
  0
LINE
  8
0
 10
-46.1812
 20
63.0395
 11
-45.6313
 21
63.8248
  0
LINE
  8
0
 10
-45.6313
 20
63.8248
 11
-44.9534
 21
64.5027
  0
LINE
  8
0
 10
-44.9534
 20
64.5027
 11
-44.1681
 21
65.0526
  0
LINE
  8
0
 10
-44.1681
 20
65.0526
 11
-43.2992
 21
65.4578
  0
LINE
  8
0
 10
-43.2992
 20
65.4578
 11
-42.3732
 21
65.7059
  0
LINE
  8
0
 10
-42.3732
 20
65.7059
 11
-41.4181
 21
65.7895
  0
LINE
  8
0
 10
-41.4181
 20
65.7895
 11
-40.463
 21
65.7059
  0
LINE
  8
0
 10
-40.463
 20
65.7059
 11
-39.537
 21
65.4578
  0
LINE
  8
0
 10
-39.537
 20
65.4578
 11
-38.6681
 21
65.0526
  0
LINE
  8
0
 10
-38.6681
 20
65.0526
 11
-37.8828
 21
64.5027
  0
LINE
  8
0
 10
-37.8828
 20
64.5027
 11
-37.2048
 21
63.8248
  0
LINE
  8
0
 10
-37.2048
 20
63.8248
 11
-36.655
 21
63.0395
  0
LINE
  8
0
 10
-36.655
 20
63.0395
 11
-36.2498
 21
62.1706
  0
LINE
  8
0
 10
-36.2498
 20
62.1706
 11
-36.0016
 21
61.2445
  0
LINE
  8
0
 10
-36.0016
 20
61.2445
 11
-35.9181
 21
60.2895
  0
LINE
  8
0
 10
-35.9181
 20
60.2895
 11
-36.0016
 21
59.3344
  0
LINE
  8
0
 10
-36.0016
 20
59.3344
 11
-36.2498
 21
58.4083
  0
LINE
  8
0
 10
-36.2498
 20
58.4083
 11
-36.655
 21
57.5395
  0
LINE
  8
0
 10
-36.655
 20
57.5395
 11
-37.2048
 21
56.7541
  0
LINE
  8
0
 10
-37.2048
 20
56.7541
 11
-37.8828
 21
56.0762
  0
LINE
  8
0
 10
-37.8828
 20
56.0762
 11
-38.6681
 21
55.5263
  0
LINE
  8
0
 10
-38.6681
 20
55.5263
 11
-39.537
 21
55.1211
  0
LINE
  8
0
 10
-39.537
 20
55.1211
 11
-40.463
 21
54.873
  0
LINE
  8
0
 10
-40.463
 20
54.873
 11
-41.4181
 21
54.7895
  0
LINE
  8
0
 10
-41.4181
 20
54.7895
 11
-42.3732
 21
54.873
  0
LINE
  8
0
 10
53.2002
 20
26.8505
 11
53.7719
 21
28.2291
  0
LINE
  8
0
 10
53.7719
 20
28.2291
 11
53.7784
 21
43.8291
  0
LINE
  8
0
 10
53.7784
 20
43.8291
 11
53.2078
 21
45.2082
  0
LINE
  8
0
 10
53.2078
 20
45.2082
 11
51.8292
 21
45.7799
  0
LINE
  8
0
 10
51.8292
 20
45.7799
 11
-44.2708
 21
45.8201
  0
LINE
  8
0
 10
-44.2708
 20
45.8201
 11
-45.6499
 21
45.2495
  0
LINE
  8
0
 10
-45.6499
 20
45.2495
 11
-46.2216
 21
43.8709
  0
LINE
  8
0
 10
-46.2216
 20
43.8709
 11
-46.2281
 21
28.2709
  0
LINE
  8
0
 10
-46.2281
 20
28.2709
 11
-45.6575
 21
26.8918
  0
LINE
  8
0
 10
-45.6575
 20
26.8918
 11
-44.2789
 21
26.3201
  0
LINE
  8
0
 10
-44.2789
 20
26.3201
 11
51.8211
 21
26.2799
  0
LINE
  8
0
 10
51.8211
 20
26.2799
 11
53.2002
 21
26.8505
  0
LINE
  8
0
 10
-62.8099
 20
26.4048
 11
-61.2945
 21
26.8109
  0
LINE
  8
0
 10
-61.2945
 20
26.8109
 11
-59.8727
 21
27.4739
  0
LINE
  8
0
 10
-59.8727
 20
27.4739
 11
-58.5876
 21
28.3737
  0
LINE
  8
0
 10
-58.5876
 20
28.3737
 11
-57.4783
 21
29.483
  0
LINE
  8
0
 10
-57.4783
 20
29.483
 11
-56.5785
 21
30.7681
  0
LINE
  8
0
 10
-56.5785
 20
30.7681
 11
-55.9155
 21
32.1899
  0
LINE
  8
0
 10
-55.9155
 20
32.1899
 11
-55.5094
 21
33.7053
  0
LINE
  8
0
 10
-55.5094
 20
33.7053
 11
-55.3727
 21
35.2681
  0
LINE
  8
0
 10
-55.3727
 20
35.2681
 11
-55.5094
 21
36.8309
  0
LINE
  8
0
 10
-55.5094
 20
36.8309
 11
-55.9155
 21
38.3463
  0
LINE
  8
0
 10
-55.9155
 20
38.3463
 11
-56.5785
 21
39.7681
  0
LINE
  8
0
 10
-56.5785
 20
39.7681
 11
-57.4783
 21
41.0532
  0
LINE
  8
0
 10
-57.4783
 20
41.0532
 11
-58.5876
 21
42.1625
  0
LINE
  8
0
 10
-58.5876
 20
42.1625
 11
-59.8727
 21
43.0623
  0
LINE
  8
0
 10
-59.8727
 20
43.0623
 11
-61.2945
 21
43.7253
  0
LINE
  8
0
 10
-61.2945
 20
43.7253
 11
-62.8099
 21
44.1314
  0
LINE
  8
0
 10
-62.8099
 20
44.1314
 11
-64.3727
 21
44.2681
  0
LINE
  8
0
 10
-64.3727
 20
44.2681
 11
-65.9355
 21
44.1314
  0
LINE
  8
0
 10
-65.9355
 20
44.1314
 11
-67.4509
 21
43.7253
  0
LINE
  8
0
 10
-67.4509
 20
43.7253
 11
-68.8727
 21
43.0623
  0
LINE
  8
0
 10
-68.8727
 20
43.0623
 11
-70.1578
 21
42.1625
  0
LINE
  8
0
 10
-70.1578
 20
42.1625
 11
-71.2671
 21
41.0532
  0
LINE
  8
0
 10
-71.2671
 20
41.0532
 11
-72.1669
 21
39.7681
  0
LINE
  8
0
 10
-72.1669
 20
39.7681
 11
-72.83
 21
38.3463
  0
LINE
  8
0
 10
-72.83
 20
38.3463
 11
-73.236
 21
36.8309
  0
LINE
  8
0
 10
-73.236
 20
36.8309
 11
-73.3727
 21
35.2681
  0
LINE
  8
0
 10
-73.3727
 20
35.2681
 11
-73.236
 21
33.7053
  0
LINE
  8
0
 10
-73.236
 20
33.7053
 11
-72.83
 21
32.1899
  0
LINE
  8
0
 10
-72.83
 20
32.1899
 11
-72.1669
 21
30.7681
  0
LINE
  8
0
 10
-72.1669
 20
30.7681
 11
-71.2671
 21
29.483
  0
LINE
  8
0
 10
-71.2671
 20
29.483
 11
-70.1578
 21
28.3737
  0
LINE
  8
0
 10
-70.1578
 20
28.3737
 11
-68.8727
 21
27.4739
  0
LINE
  8
0
 10
-68.8727
 20
27.4739
 11
-67.4509
 21
26.8109
  0
LINE
  8
0
 10
-67.4509
 20
26.8109
 11
-65.9355
 21
26.4048
  0
LINE
  8
0
 10
-65.9355
 20
26.4048
 11
-64.3727
 21
26.2681
  0
LINE
  8
0
 10
-64.3727
 20
26.2681
 11
-62.8099
 21
26.4048
  0
LINE
  8
0
 10
-65.3278
 20
29.8517
 11
-66.2538
 21
30.0998
  0
LINE
  8
0
 10
-66.2538
 20
30.0998
 11
-67.1227
 21
30.505
  0
LINE
  8
0
 10
-67.1227
 20
30.505
 11
-67.9081
 21
31.0549
  0
LINE
  8
0
 10
-67.9081
 20
31.0549
 11
-68.586
 21
31.7328
  0
LINE
  8
0
 10
-68.586
 20
31.7328
 11
-69.1359
 21
32.5181
  0
LINE
  8
0
 10
-69.1359
 20
32.5181
 11
-69.541
 21
33.387
  0
LINE
  8
0
 10
-69.541
 20
33.387
 11
-69.7892
 21
34.313
  0
LINE
  8
0
 10
-69.7892
 20
34.313
 11
-69.8727
 21
35.2681
  0
LINE
  8
0
 10
-69.8727
 20
35.2681
 11
-69.7892
 21
36.2232
  0
LINE
  8
0
 10
-69.7892
 20
36.2232
 11
-69.541
 21
37.1492
  0
LINE
  8
0
 10
-69.541
 20
37.1492
 11
-69.1359
 21
38.0181
  0
LINE
  8
0
 10
-69.1359
 20
38.0181
 11
-68.586
 21
38.8034
  0
LINE
  8
0
 10
-68.586
 20
38.8034
 11
-67.9081
 21
39.4813
  0
LINE
  8
0
 10
-67.9081
 20
39.4813
 11
-67.1227
 21
40.0312
  0
LINE
  8
0
 10
-67.1227
 20
40.0312
 11
-66.2538
 21
40.4364
  0
LINE
  8
0
 10
-66.2538
 20
40.4364
 11
-65.3278
 21
40.6845
  0
LINE
  8
0
 10
-65.3278
 20
40.6845
 11
-64.3727
 21
40.7681
  0
LINE
  8
0
 10
-64.3727
 20
40.7681
 11
-63.4176
 21
40.6845
  0
LINE
  8
0
 10
-63.4176
 20
40.6845
 11
-62.4916
 21
40.4364
  0
LINE
  8
0
 10
-62.4916
 20
40.4364
 11
-61.6227
 21
40.0312
  0
LINE
  8
0
 10
-61.6227
 20
40.0312
 11
-60.8374
 21
39.4813
  0
LINE
  8
0
 10
-60.8374
 20
39.4813
 11
-60.1595
 21
38.8034
  0
LINE
  8
0
 10
-60.1595
 20
38.8034
 11
-59.6096
 21
38.0181
  0
LINE
  8
0
 10
-59.6096
 20
38.0181
 11
-59.2044
 21
37.1492
  0
LINE
  8
0
 10
-59.2044
 20
37.1492
 11
-58.9563
 21
36.2232
  0
LINE
  8
0
 10
-58.9563
 20
36.2232
 11
-58.8727
 21
35.2681
  0
LINE
  8
0
 10
-58.8727
 20
35.2681
 11
-58.9563
 21
34.313
  0
LINE
  8
0
 10
-58.9563
 20
34.313
 11
-59.2044
 21
33.387
  0
LINE
  8
0
 10
-59.2044
 20
33.387
 11
-59.6096
 21
32.5181
  0
LINE
  8
0
 10
-59.6096
 20
32.5181
 11
-60.1595
 21
31.7328
  0
LINE
  8
0
 10
-60.1595
 20
31.7328
 11
-60.8374
 21
31.0549
  0
LINE
  8
0
 10
-60.8374
 20
31.0549
 11
-61.6227
 21
30.505
  0
LINE
  8
0
 10
-61.6227
 20
30.505
 11
-62.4916
 21
30.0998
  0
LINE
  8
0
 10
-62.4916
 20
30.0998
 11
-63.4176
 21
29.8517
  0
LINE
  8
0
 10
-63.4176
 20
29.8517
 11
-64.3727
 21
29.7681
  0
LINE
  8
0
 10
-64.3727
 20
29.7681
 11
-65.3278
 21
29.8517
  0
LINE
  8
0
 10
71.5618
 20
26.4048
 11
73.0771
 21
26.8109
  0
LINE
  8
0
 10
73.0771
 20
26.8109
 11
74.499
 21
27.4739
  0
LINE
  8
0
 10
74.499
 20
27.4739
 11
75.7841
 21
28.3737
  0
LINE
  8
0
 10
75.7841
 20
28.3737
 11
76.8934
 21
29.483
  0
LINE
  8
0
 10
76.8934
 20
29.483
 11
77.7932
 21
30.7681
  0
LINE
  8
0
 10
77.7932
 20
30.7681
 11
78.4562
 21
32.1899
  0
LINE
  8
0
 10
78.4562
 20
32.1899
 11
78.8622
 21
33.7053
  0
LINE
  8
0
 10
78.8622
 20
33.7053
 11
78.999
 21
35.2681
  0
LINE
  8
0
 10
78.999
 20
35.2681
 11
78.8622
 21
36.8309
  0
LINE
  8
0
 10
78.8622
 20
36.8309
 11
78.4562
 21
38.3463
  0
LINE
  8
0
 10
78.4562
 20
38.3463
 11
77.7932
 21
39.7681
  0
LINE
  8
0
 10
77.7932
 20
39.7681
 11
76.8934
 21
41.0532
  0
LINE
  8
0
 10
76.8934
 20
41.0532
 11
75.7841
 21
42.1625
  0
LINE
  8
0
 10
75.7841
 20
42.1625
 11
74.499
 21
43.0623
  0
LINE
  8
0
 10
74.499
 20
43.0623
 11
73.0771
 21
43.7253
  0
LINE
  8
0
 10
73.0771
 20
43.7253
 11
71.5618
 21
44.1314
  0
LINE
  8
0
 10
71.5618
 20
44.1314
 11
69.999
 21
44.2681
  0
LINE
  8
0
 10
69.999
 20
44.2681
 11
68.4361
 21
44.1314
  0
LINE
  8
0
 10
68.4361
 20
44.1314
 11
66.9208
 21
43.7253
  0
LINE
  8
0
 10
66.9208
 20
43.7253
 11
65.499
 21
43.0623
  0
LINE
  8
0
 10
65.499
 20
43.0623
 11
64.2139
 21
42.1625
  0
LINE
  8
0
 10
64.2139
 20
42.1625
 11
63.1046
 21
41.0532
  0
LINE
  8
0
 10
63.1046
 20
41.0532
 11
62.2047
 21
39.7681
  0
LINE
  8
0
 10
62.2047
 20
39.7681
 11
61.5417
 21
38.3463
  0
LINE
  8
0
 10
61.5417
 20
38.3463
 11
61.1357
 21
36.8309
  0
LINE
  8
0
 10
61.1357
 20
36.8309
 11
60.999
 21
35.2681
  0
LINE
  8
0
 10
60.999
 20
35.2681
 11
61.1357
 21
33.7053
  0
LINE
  8
0
 10
61.1357
 20
33.7053
 11
61.5417
 21
32.1899
  0
LINE
  8
0
 10
61.5417
 20
32.1899
 11
62.2047
 21
30.7681
  0
LINE
  8
0
 10
62.2047
 20
30.7681
 11
63.1046
 21
29.483
  0
LINE
  8
0
 10
63.1046
 20
29.483
 11
64.2139
 21
28.3737
  0
LINE
  8
0
 10
64.2139
 20
28.3737
 11
65.499
 21
27.4739
  0
LINE
  8
0
 10
65.499
 20
27.4739
 11
66.9208
 21
26.8109
  0
LINE
  8
0
 10
66.9208
 20
26.8109
 11
68.4361
 21
26.4048
  0
LINE
  8
0
 10
68.4361
 20
26.4048
 11
69.999
 21
26.2681
  0
LINE
  8
0
 10
69.999
 20
26.2681
 11
71.5618
 21
26.4048
  0
LINE
  8
0
 10
69.0439
 20
29.8517
 11
68.1179
 21
30.0998
  0
LINE
  8
0
 10
68.1179
 20
30.0998
 11
67.249
 21
30.505
  0
LINE
  8
0
 10
67.249
 20
30.505
 11
66.4636
 21
31.0549
  0
LINE
  8
0
 10
66.4636
 20
31.0549
 11
65.7857
 21
31.7328
  0
LINE
  8
0
 10
65.7857
 20
31.7328
 11
65.2358
 21
32.5181
  0
LINE
  8
0
 10
65.2358
 20
32.5181
 11
64.8307
 21
33.387
  0
LINE
  8
0
 10
64.8307
 20
33.387
 11
64.5825
 21
34.313
  0
LINE
  8
0
 10
64.5825
 20
34.313
 11
64.499
 21
35.2681
  0
LINE
  8
0
 10
64.499
 20
35.2681
 11
64.5825
 21
36.2232
  0
LINE
  8
0
 10
64.5825
 20
36.2232
 11
64.8307
 21
37.1492
  0
LINE
  8
0
 10
64.8307
 20
37.1492
 11
65.2358
 21
38.0181
  0
LINE
  8
0
 10
65.2358
 20
38.0181
 11
65.7857
 21
38.8034
  0
LINE
  8
0
 10
65.7857
 20
38.8034
 11
66.4636
 21
39.4813
  0
LINE
  8
0
 10
66.4636
 20
39.4813
 11
67.249
 21
40.0312
  0
LINE
  8
0
 10
67.249
 20
40.0312
 11
68.1179
 21
40.4364
  0
LINE
  8
0
 10
68.1179
 20
40.4364
 11
69.0439
 21
40.6845
  0
LINE
  8
0
 10
69.0439
 20
40.6845
 11
69.999
 21
40.7681
  0
LINE
  8
0
 10
69.999
 20
40.7681
 11
70.954
 21
40.6845
  0
LINE
  8
0
 10
70.954
 20
40.6845
 11
71.8801
 21
40.4364
  0
LINE
  8
0
 10
71.8801
 20
40.4364
 11
72.749
 21
40.0312
  0
LINE
  8
0
 10
72.749
 20
40.0312
 11
73.5343
 21
39.4813
  0
LINE
  8
0
 10
73.5343
 20
39.4813
 11
74.2122
 21
38.8034
  0
LINE
  8
0
 10
74.2122
 20
38.8034
 11
74.7621
 21
38.0181
  0
LINE
  8
0
 10
74.7621
 20
38.0181
 11
75.1673
 21
37.1492
  0
LINE
  8
0
 10
75.1673
 20
37.1492
 11
75.4154
 21
36.2232
  0
LINE
  8
0
 10
75.4154
 20
36.2232
 11
75.499
 21
35.2681
  0
LINE
  8
0
 10
75.499
 20
35.2681
 11
75.4154
 21
34.313
  0
LINE
  8
0
 10
75.4154
 20
34.313
 11
75.1673
 21
33.387
  0
LINE
  8
0
 10
75.1673
 20
33.387
 11
74.7621
 21
32.5181
  0
LINE
  8
0
 10
74.7621
 20
32.5181
 11
74.2122
 21
31.7328
  0
LINE
  8
0
 10
74.2122
 20
31.7328
 11
73.5343
 21
31.0549
  0
LINE
  8
0
 10
73.5343
 20
31.0549
 11
72.749
 21
30.505
  0
LINE
  8
0
 10
72.749
 20
30.505
 11
71.8801
 21
30.0998
  0
LINE
  8
0
 10
71.8801
 20
30.0998
 11
70.954
 21
29.8517
  0
LINE
  8
0
 10
70.954
 20
29.8517
 11
69.999
 21
29.7681
  0
LINE
  8
0
 10
69.999
 20
29.7681
 11
69.0439
 21
29.8517
  0
LINE
  8
0
 10
96.7449
 20
25.2739
 11
98.1127
 21
25.6404
  0
LINE
  8
0
 10
98.1127
 20
25.6404
 11
99.3961
 21
26.2388
  0
LINE
  8
0
 10
99.3961
 20
26.2388
 11
100.556
 21
27.0511
  0
LINE
  8
0
 10
100.556
 20
27.0511
 11
101.557
 21
28.0523
  0
LINE
  8
0
 10
101.557
 20
28.0523
 11
102.37
 21
29.2123
  0
LINE
  8
0
 10
102.37
 20
29.2123
 11
102.968
 21
30.4957
  0
LINE
  8
0
 10
102.968
 20
30.4957
 11
103.334
 21
31.8634
  0
LINE
  8
0
 10
103.334
 20
31.8634
 11
103.458
 21
33.2741
  0
LINE
  8
0
 10
103.458
 20
33.2741
 11
103.334
 21
34.6847
  0
LINE
  8
0
 10
103.334
 20
34.6847
 11
102.968
 21
36.0525
  0
LINE
  8
0
 10
102.968
 20
36.0525
 11
102.37
 21
37.3359
  0
LINE
  8
0
 10
102.37
 20
37.3359
 11
101.557
 21
38.4958
  0
LINE
  8
0
 10
101.557
 20
38.4958
 11
100.556
 21
39.4971
  0
LINE
  8
0
 10
100.556
 20
39.4971
 11
99.3961
 21
40.3093
  0
LINE
  8
0
 10
99.3961
 20
40.3093
 11
98.1127
 21
40.9078
  0
LINE
  8
0
 10
98.1127
 20
40.9078
 11
96.7449
 21
41.2743
  0
LINE
  8
0
 10
96.7449
 20
41.2743
 11
95.3343
 21
41.3977
  0
LINE
  8
0
 10
95.3343
 20
41.3977
 11
93.9236
 21
41.2743
  0
LINE
  8
0
 10
93.9236
 20
41.2743
 11
92.5558
 21
40.9078
  0
LINE
  8
0
 10
92.5558
 20
40.9078
 11
91.2725
 21
40.3093
  0
LINE
  8
0
 10
91.2725
 20
40.3093
 11
90.1125
 21
39.4971
  0
LINE
  8
0
 10
90.1125
 20
39.4971
 11
89.1113
 21
38.4958
  0
LINE
  8
0
 10
89.1113
 20
38.4958
 11
88.299
 21
37.3359
  0
LINE
  8
0
 10
88.299
 20
37.3359
 11
87.7006
 21
36.0525
  0
LINE
  8
0
 10
87.7006
 20
36.0525
 11
87.3341
 21
34.6847
  0
LINE
  8
0
 10
87.3341
 20
34.6847
 11
87.2107
 21
33.2741
  0
LINE
  8
0
 10
87.2107
 20
33.2741
 11
87.3341
 21
31.8634
  0
LINE
  8
0
 10
87.3341
 20
31.8634
 11
87.7006
 21
30.4957
  0
LINE
  8
0
 10
87.7006
 20
30.4957
 11
88.299
 21
29.2123
  0
LINE
  8
0
 10
88.299
 20
29.2123
 11
89.1113
 21
28.0523
  0
LINE
  8
0
 10
89.1113
 20
28.0523
 11
90.1125
 21
27.0511
  0
LINE
  8
0
 10
90.1125
 20
27.0511
 11
91.2725
 21
26.2388
  0
LINE
  8
0
 10
91.2725
 20
26.2388
 11
92.5558
 21
25.6404
  0
LINE
  8
0
 10
92.5558
 20
25.6404
 11
93.9236
 21
25.2739
  0
LINE
  8
0
 10
93.9236
 20
25.2739
 11
95.3343
 21
25.1505
  0
LINE
  8
0
 10
95.3343
 20
25.1505
 11
96.7449
 21
25.2739
  0
LINE
  8
0
 10
-93.0622
 20
25.2739
 11
-91.6944
 21
25.6404
  0
LINE
  8
0
 10
-91.6944
 20
25.6404
 11
-90.4111
 21
26.2388
  0
LINE
  8
0
 10
-90.4111
 20
26.2388
 11
-89.2511
 21
27.0511
  0
LINE
  8
0
 10
-89.2511
 20
27.0511
 11
-88.2498
 21
28.0523
  0
LINE
  8
0
 10
-88.2498
 20
28.0523
 11
-87.4376
 21
29.2123
  0
LINE
  8
0
 10
-87.4376
 20
29.2123
 11
-86.8392
 21
30.4957
  0
LINE
  8
0
 10
-86.8392
 20
30.4957
 11
-86.4727
 21
31.8634
  0
LINE
  8
0
 10
-86.4727
 20
31.8634
 11
-86.3493
 21
33.2741
  0
LINE
  8
0
 10
-86.3493
 20
33.2741
 11
-86.4727
 21
34.6847
  0
LINE
  8
0
 10
-86.4727
 20
34.6847
 11
-86.8392
 21
36.0525
  0
LINE
  8
0
 10
-86.8392
 20
36.0525
 11
-87.4376
 21
37.3359
  0
LINE
  8
0
 10
-87.4376
 20
37.3359
 11
-88.2498
 21
38.4958
  0
LINE
  8
0
 10
-88.2498
 20
38.4958
 11
-89.2511
 21
39.4971
  0
LINE
  8
0
 10
-89.2511
 20
39.4971
 11
-90.4111
 21
40.3093
  0
LINE
  8
0
 10
-90.4111
 20
40.3093
 11
-91.6944
 21
40.9078
  0
LINE
  8
0
 10
-91.6944
 20
40.9078
 11
-93.0622
 21
41.2743
  0
LINE
  8
0
 10
-93.0622
 20
41.2743
 11
-94.4729
 21
41.3977
  0
LINE
  8
0
 10
-94.4729
 20
41.3977
 11
-95.8835
 21
41.2743
  0
LINE
  8
0
 10
-95.8835
 20
41.2743
 11
-97.2513
 21
40.9078
  0
LINE
  8
0
 10
-97.2513
 20
40.9078
 11
-98.5347
 21
40.3093
  0
LINE
  8
0
 10
-98.5347
 20
40.3093
 11
-99.6946
 21
39.4971
  0
LINE
  8
0
 10
-99.6946
 20
39.4971
 11
-100.696
 21
38.4958
  0
LINE
  8
0
 10
-100.696
 20
38.4958
 11
-101.508
 21
37.3359
  0
LINE
  8
0
 10
-101.508
 20
37.3359
 11
-102.107
 21
36.0525
  0
LINE
  8
0
 10
-102.107
 20
36.0525
 11
-102.473
 21
34.6847
  0
LINE
  8
0
 10
-102.473
 20
34.6847
 11
-102.596
 21
33.2741
  0
LINE
  8
0
 10
-102.596
 20
33.2741
 11
-102.473
 21
31.8634
  0
LINE
  8
0
 10
-102.473
 20
31.8634
 11
-102.107
 21
30.4957
  0
LINE
  8
0
 10
-102.107
 20
30.4957
 11
-101.508
 21
29.2123
  0
LINE
  8
0
 10
-101.508
 20
29.2123
 11
-100.696
 21
28.0523
  0
LINE
  8
0
 10
-100.696
 20
28.0523
 11
-99.6946
 21
27.0511
  0
LINE
  8
0
 10
-99.6946
 20
27.0511
 11
-98.5347
 21
26.2388
  0
LINE
  8
0
 10
-98.5347
 20
26.2388
 11
-97.2513
 21
25.6404
  0
LINE
  8
0
 10
-97.2513
 20
25.6404
 11
-95.8835
 21
25.2739
  0
LINE
  8
0
 10
-95.8835
 20
25.2739
 11
-94.4729
 21
25.1505
  0
LINE
  8
0
 10
-94.4729
 20
25.1505
 11
-93.0622
 21
25.2739
  0
LINE
  8
0
 10
10
 20
10
 11
-10
 21
10
  0
LINE
  8
0
 10
-10
 20
10
 11
-10
 21
-10
  0
LINE
  8
0
 10
-10
 20
-10
 11
10
 21
-10
  0
LINE
  8
0
 10
10
 20
-10
 11
10
 21
10
  0
ENDSEC
  0
SECTION
  2
OBJECTS
  0
DICTIONARY
  0
ENDSEC
  0
EOF
