  0
SECTION
  2
BLOCKS
  0
ENDSEC
  0
SECTION
  2
ENTITIES
  0
LINE
  8
0
 10
91.118
 20
59.5979
 11
91.5
 21
59.7679
  0
LINE
  8
0
 10
91.5
 20
59.7679
 11
91.8383
 21
60.0137
  0
LINE
  8
0
 10
91.8383
 20
60.0137
 11
92.118
 21
60.3244
  0
LINE
  8
0
 10
92.118
 20
60.3244
 11
92.3271
 21
60.6865
  0
LINE
  8
0
 10
92.3271
 20
60.6865
 11
92.4563
 21
61.0842
  0
LINE
  8
0
 10
92.4563
 20
61.0842
 11
92.5
 21
61.5
  0
LINE
  8
0
 10
92.5
 20
61.5
 11
92.4563
 21
61.9158
  0
LINE
  8
0
 10
92.4563
 20
61.9158
 11
92.3271
 21
62.3135
  0
LINE
  8
0
 10
92.3271
 20
62.3135
 11
92.118
 21
62.6756
  0
LINE
  8
0
 10
92.118
 20
62.6756
 11
91.8383
 21
62.9863
  0
LINE
  8
0
 10
91.8383
 20
62.9863
 11
91.5
 21
63.232
  0
LINE
  8
0
 10
91.5
 20
63.232
 11
91.118
 21
63.4021
  0
LINE
  8
0
 10
91.118
 20
63.4021
 11
90.7091
 21
63.489
  0
LINE
  8
0
 10
90.7091
 20
63.489
 11
90.2909
 21
63.489
  0
LINE
  8
0
 10
90.2909
 20
63.489
 11
89.882
 21
63.4021
  0
LINE
  8
0
 10
89.882
 20
63.4021
 11
89.5
 21
63.232
  0
LINE
  8
0
 10
89.5
 20
63.232
 11
89.1617
 21
62.9863
  0
LINE
  8
0
 10
89.1617
 20
62.9863
 11
88.882
 21
62.6756
  0
LINE
  8
0
 10
88.882
 20
62.6756
 11
88.6729
 21
62.3135
  0
LINE
  8
0
 10
88.6729
 20
62.3135
 11
88.5437
 21
61.9158
  0
LINE
  8
0
 10
88.5437
 20
61.9158
 11
88.5
 21
61.5
  0
LINE
  8
0
 10
88.5
 20
61.5
 11
88.5437
 21
61.0842
  0
LINE
  8
0
 10
88.5437
 20
61.0842
 11
88.6729
 21
60.6865
  0
LINE
  8
0
 10
88.6729
 20
60.6865
 11
88.882
 21
60.3244
  0
LINE
  8
0
 10
88.882
 20
60.3244
 11
89.1617
 21
60.0137
  0
LINE
  8
0
 10
89.1617
 20
60.0137
 11
89.5
 21
59.7679
  0
LINE
  8
0
 10
89.5
 20
59.7679
 11
89.882
 21
59.5979
  0
LINE
  8
0
 10
89.882
 20
59.5979
 11
90.2909
 21
59.511
  0
LINE
  8
0
 10
90.2909
 20
59.511
 11
90.7091
 21
59.511
  0
LINE
  8
0
 10
90.7091
 20
59.511
 11
91.118
 21
59.5979
  0
LINE
  8
0
 10
-89.882
 20
59.5979
 11
-89.5
 21
59.7679
  0
LINE
  8
0
 10
-89.5
 20
59.7679
 11
-89.1617
 21
60.0137
  0
LINE
  8
0
 10
-89.1617
 20
60.0137
 11
-88.882
 21
60.3244
  0
LINE
  8
0
 10
-88.882
 20
60.3244
 11
-88.6729
 21
60.6865
  0
LINE
  8
0
 10
-88.6729
 20
60.6865
 11
-88.5437
 21
61.0842
  0
LINE
  8
0
 10
-88.5437
 20
61.0842
 11
-88.5
 21
61.5
  0
LINE
  8
0
 10
-88.5
 20
61.5
 11
-88.5437
 21
61.9158
  0
LINE
  8
0
 10
-88.5437
 20
61.9158
 11
-88.6729
 21
62.3135
  0
LINE
  8
0
 10
-88.6729
 20
62.3135
 11
-88.882
 21
62.6756
  0
LINE
  8
0
 10
-88.882
 20
62.6756
 11
-89.1617
 21
62.9863
  0
LINE
  8
0
 10
-89.1617
 20
62.9863
 11
-89.5
 21
63.232
  0
LINE
  8
0
 10
-89.5
 20
63.232
 11
-89.882
 21
63.4021
  0
LINE
  8
0
 10
-89.882
 20
63.4021
 11
-90.2909
 21
63.489
  0
LINE
  8
0
 10
-90.2909
 20
63.489
 11
-90.7091
 21
63.489
  0
LINE
  8
0
 10
-90.7091
 20
63.489
 11
-91.118
 21
63.4021
  0
LINE
  8
0
 10
-91.118
 20
63.4021
 11
-91.5
 21
63.232
  0
LINE
  8
0
 10
-91.5
 20
63.232
 11
-91.8383
 21
62.9863
  0
LINE
  8
0
 10
-91.8383
 20
62.9863
 11
-92.118
 21
62.6756
  0
LINE
  8
0
 10
-92.118
 20
62.6756
 11
-92.3271
 21
62.3135
  0
LINE
  8
0
 10
-92.3271
 20
62.3135
 11
-92.4563
 21
61.9158
  0
LINE
  8
0
 10
-92.4563
 20
61.9158
 11
-92.5
 21
61.5
  0
LINE
  8
0
 10
-92.5
 20
61.5
 11
-92.4563
 21
61.0842
  0
LINE
  8
0
 10
-92.4563
 20
61.0842
 11
-92.3271
 21
60.6865
  0
LINE
  8
0
 10
-92.3271
 20
60.6865
 11
-92.118
 21
60.3244
  0
LINE
  8
0
 10
-92.118
 20
60.3244
 11
-91.8383
 21
60.0137
  0
LINE
  8
0
 10
-91.8383
 20
60.0137
 11
-91.5
 21
59.7679
  0
LINE
  8
0
 10
-91.5
 20
59.7679
 11
-91.118
 21
59.5979
  0
LINE
  8
0
 10
-91.118
 20
59.5979
 11
-90.7091
 21
59.511
  0
LINE
  8
0
 10
-90.7091
 20
59.511
 11
-90.2909
 21
59.511
  0
LINE
  8
0
 10
-90.2909
 20
59.511
 11
-89.882
 21
59.5979
  0
LINE
  8
0
 10
10
 20
10
 11
-10
 21
10
  0
LINE
  8
0
 10
-10
 20
10
 11
-10
 21
-10
  0
LINE
  8
0
 10
-10
 20
-10
 11
10
 21
-10
  0
LINE
  8
0
 10
10
 20
-10
 11
10
 21
10
  0
ENDSEC
  0
SECTION
  2
OBJECTS
  0
DICTIONARY
  0
ENDSEC
  0
EOF
