<?xml version="1.0" standalone="no"?>
<!DOCTYPE svg PUBLIC "-//W3C//DTD SVG 1.1//EN" "http://www.w3.org/Graphics/SVG/1.1/DTD/svg11.dtd">
<svg width="212mm" height="169mm" viewBox="-106 -114 212 169" xmlns="http://www.w3.org/2000/svg" version="1.1">
<title>OpenSCAD Model</title>
<path d="
M -66,-63.0166 L -35.0537,-81.3711 L 35.0537,-81.3711 L 66,-63.0166 L 77.1963,-46.5938 L 95.4131,-46.5938
 L 105.174,-58.2607 L 105.174,-69.9277 L 95.5645,-81.5938 L 95.5645,-93.2607 L 105.174,-101.426 L 105.174,-113.299
 L -105.174,-113.299 L -105.174,-101.426 L -101.217,-99.7598 L -95.5645,-93.2607 L -95.5645,-81.5938 L -105.174,-69.9277
 L -105.174,-58.2607 L -95.4131,-46.5938 L -77.1963,-46.5938 z
M -91.2227,-103.122 L -92.6514,-103.743 L -93.2227,-105.122 L -93.2227,-109.322 L -92.6367,-110.736 L -91.2227,-111.322
 L -75.2227,-111.322 L -73.8086,-110.736 L -73.2227,-109.322 L -73.2227,-105.122 L -73.7939,-103.743 L -75.2227,-103.122
 z
M 75.2666,-103.122 L 73.8379,-103.743 L 73.2666,-105.122 L 73.2666,-109.322 L 73.8525,-110.736 L 75.2666,-111.322
 L 91.2666,-111.322 L 92.6816,-110.736 L 93.2666,-109.322 L 93.2666,-105.122 L 92.6963,-103.743 L 91.2666,-103.122
 z
M 90.291,-59.5107 L 89.8818,-59.5977 L 89.5,-59.7676 L 89.1621,-60.0137 L 88.8818,-60.3242 L 88.6729,-60.6865
 L 88.5439,-61.084 L 88.5,-61.5 L 88.5439,-61.916 L 88.6729,-62.3135 L 88.8818,-62.6758 L 89.1621,-62.9863
 L 89.5,-63.2324 L 89.8818,-63.4023 L 90.291,-63.4893 L 90.709,-63.4893 L 91.1182,-63.4023 L 91.5,-63.2324
 L 91.8379,-62.9863 L 92.1182,-62.6758 L 92.3271,-62.3135 L 92.4561,-61.916 L 92.5,-61.5 L 92.4561,-61.084
 L 92.3271,-60.6865 L 92.1182,-60.3242 L 91.8379,-60.0137 L 91.5,-59.7676 L 91.1182,-59.5977 L 90.709,-59.5107
 z
M -90.709,-59.5107 L -91.1182,-59.5977 L -91.5,-59.7676 L -91.8379,-60.0137 L -92.1182,-60.3242 L -92.3271,-60.6865
 L -92.4561,-61.084 L -92.5,-61.5 L -92.4561,-61.916 L -92.3271,-62.3135 L -92.1182,-62.6758 L -91.8379,-62.9863
 L -91.5,-63.2324 L -91.1182,-63.4023 L -90.709,-63.4893 L -90.291,-63.4893 L -89.8818,-63.4023 L -89.5,-63.2324
 L -89.1621,-62.9863 L -88.8818,-62.6758 L -88.6729,-62.3135 L -88.5439,-61.916 L -88.5,-61.5 L -88.5439,-61.084
 L -88.6729,-60.6865 L -88.8818,-60.3242 L -89.1621,-60.0137 L -89.5,-59.7676 L -89.8818,-59.5977 L -90.291,-59.5107
 z
M 14.4268,-50.9639 L 16.1104,-51.415 L 17.6904,-52.1514 L 19.1182,-53.1514 L 20.3506,-54.3838 L 21.3506,-55.8115
 L 22.0869,-57.3916 L 22.5381,-59.0752 L 22.6904,-60.8115 L 22.5381,-62.5488 L 22.0869,-64.2324 L 21.3506,-65.8115
 L 20.3506,-67.2402 L 19.1182,-68.4727 L 17.6904,-69.4727 L 16.1104,-70.209 L 14.4268,-70.6602 L 12.6904,-70.8115
 L 10.9541,-70.6602 L 9.27051,-70.209 L 7.69043,-69.4727 L 6.2627,-68.4727 L 5.03027,-67.2402 L 4.03027,-65.8115
 L 3.29297,-64.2324 L 2.8418,-62.5488 L 2.69043,-60.8115 L 2.8418,-59.0752 L 3.29297,-57.3916 L 4.03027,-55.8115
 L 5.03027,-54.3838 L 6.2627,-53.1514 L 7.69043,-52.1514 L 9.27051,-51.415 L 10.9541,-50.9639 L 12.6904,-50.8115
 z
M 11.7354,-55.3955 L 10.8096,-55.6436 L 9.94043,-56.0488 L 9.15527,-56.5986 L 8.47754,-57.2764 L 7.92676,-58.0615
 L 7.52246,-58.9307 L 7.27344,-59.8564 L 7.19043,-60.8115 L 7.27344,-61.7666 L 7.52246,-62.6934 L 7.92676,-63.5615
 L 8.47754,-64.3477 L 9.15527,-65.0254 L 9.94043,-65.5752 L 10.8096,-65.9805 L 11.7354,-66.2285 L 12.6904,-66.3115
 L 13.6455,-66.2285 L 14.5713,-65.9805 L 15.4404,-65.5752 L 16.2256,-65.0254 L 16.9033,-64.3477 L 17.4531,-63.5615
 L 17.8584,-62.6934 L 18.1064,-61.7666 L 18.1904,-60.8115 L 18.1064,-59.8564 L 17.8584,-58.9307 L 17.4531,-58.0615
 L 16.9033,-57.2764 L 16.2256,-56.5986 L 15.4404,-56.0488 L 14.5713,-55.6436 L 13.6455,-55.3955 L 12.6904,-55.3115
 z
M 39.4189,-50.9512 L 41.1025,-51.4023 L 42.6826,-52.1396 L 44.1104,-53.1396 L 45.3428,-54.3721 L 46.3428,-55.7998
 L 47.0801,-57.3799 L 47.5312,-59.0635 L 47.6826,-60.7998 L 47.5312,-62.5361 L 47.0801,-64.2197 L 46.3428,-65.7998
 L 45.3428,-67.2275 L 44.1104,-68.46 L 42.6826,-69.46 L 41.1025,-70.1963 L 39.4189,-70.6475 L 37.6826,-70.7998
 L 35.9463,-70.6475 L 34.2627,-70.1963 L 32.6826,-69.46 L 31.2549,-68.46 L 30.0225,-67.2275 L 29.0225,-65.7998
 L 28.2861,-64.2197 L 27.835,-62.5361 L 27.6826,-60.7998 L 27.835,-59.0635 L 28.2861,-57.3799 L 29.0225,-55.7998
 L 30.0225,-54.3721 L 31.2549,-53.1396 L 32.6826,-52.1396 L 34.2627,-51.4023 L 35.9463,-50.9512 L 37.6826,-50.7998
 z
M 36.7275,-55.3828 L 35.8018,-55.6309 L 34.9326,-56.0361 L 34.1475,-56.5859 L 33.4697,-57.2646 L 32.9199,-58.0498
 L 32.5146,-58.9189 L 32.2666,-59.8447 L 32.1826,-60.7998 L 32.2666,-61.7549 L 32.5146,-62.6807 L 32.9199,-63.5498
 L 33.4697,-64.335 L 34.1475,-65.0127 L 34.9326,-65.5625 L 35.8018,-65.9678 L 36.7275,-66.2158 L 37.6826,-66.2998
 L 38.6377,-66.2158 L 39.5635,-65.9678 L 40.4326,-65.5625 L 41.2178,-65.0127 L 41.8965,-64.335 L 42.4463,-63.5498
 L 42.8516,-62.6807 L 43.0996,-61.7549 L 43.1826,-60.7998 L 43.0996,-59.8447 L 42.8516,-58.9189 L 42.4463,-58.0498
 L 41.8965,-57.2646 L 41.2178,-56.5859 L 40.4326,-56.0361 L 39.5635,-55.6309 L 38.6377,-55.3828 L 37.6826,-55.2998
 z
M -13.1475,-50.4541 L -11.4639,-50.9053 L -9.88379,-51.6416 L -8.45605,-52.6416 L -7.22363,-53.874 L -6.22363,-55.3018
 L -5.48633,-56.8818 L -5.03516,-58.5654 L -4.88379,-60.3018 L -5.03516,-62.0381 L -5.48633,-63.7217 L -6.22363,-65.3018
 L -7.22363,-66.7295 L -8.45605,-67.9619 L -9.88379,-68.9619 L -11.4639,-69.6982 L -13.1475,-70.1494 L -14.8838,-70.3018
 L -16.6201,-70.1494 L -18.3037,-69.6982 L -19.8838,-68.9619 L -21.3115,-67.9619 L -22.5439,-66.7295 L -23.5439,-65.3018
 L -24.2803,-63.7217 L -24.7314,-62.0381 L -24.8838,-60.3018 L -24.7314,-58.5654 L -24.2803,-56.8818 L -23.5439,-55.3018
 L -22.5439,-53.874 L -21.3115,-52.6416 L -19.8838,-51.6416 L -18.3037,-50.9053 L -16.6201,-50.4541 L -14.8838,-50.3018
 z
M -15.8389,-54.8857 L -16.7646,-55.1338 L -17.6338,-55.5391 L -18.4189,-56.0889 L -19.0967,-56.7666 L -19.6465,-57.5518
 L -20.0518,-58.4209 L -20.2998,-59.3467 L -20.3838,-60.3018 L -20.2998,-61.2568 L -20.0518,-62.1826 L -19.6465,-63.0518
 L -19.0967,-63.8369 L -18.4189,-64.5146 L -17.6338,-65.0654 L -16.7646,-65.4697 L -15.8389,-65.7188 L -14.8838,-65.8018
 L -13.9287,-65.7188 L -13.0029,-65.4697 L -12.1338,-65.0654 L -11.3486,-64.5146 L -10.6699,-63.8369 L -10.1201,-63.0518
 L -9.71582,-62.1826 L -9.4668,-61.2568 L -9.38379,-60.3018 L -9.4668,-59.3467 L -9.71582,-58.4209 L -10.1201,-57.5518
 L -10.6699,-56.7666 L -11.3486,-56.0889 L -12.1338,-55.5391 L -13.0029,-55.1338 L -13.9287,-54.8857 L -14.8838,-54.8018
 z
M -39.6816,-50.4414 L -37.998,-50.8926 L -36.418,-51.6289 L -34.9902,-52.6289 L -33.7578,-53.8613 L -32.7578,-55.2891
 L -32.0215,-56.8691 L -31.5703,-58.5527 L -31.418,-60.2891 L -31.5703,-62.0264 L -32.0215,-63.71 L -32.7578,-65.2891
 L -33.7578,-66.7178 L -34.9902,-67.9502 L -36.418,-68.9492 L -37.998,-69.6865 L -39.6816,-70.1377 L -41.418,-70.2891
 L -43.1543,-70.1377 L -44.8379,-69.6865 L -46.418,-68.9492 L -47.8457,-67.9502 L -49.0781,-66.7178 L -50.0781,-65.2891
 L -50.8154,-63.71 L -51.2666,-62.0264 L -51.418,-60.2891 L -51.2666,-58.5527 L -50.8154,-56.8691 L -50.0781,-55.2891
 L -49.0781,-53.8613 L -47.8457,-52.6289 L -46.418,-51.6289 L -44.8379,-50.8926 L -43.1543,-50.4414 L -41.418,-50.2891
 z
M -42.373,-54.873 L -43.2988,-55.1211 L -44.168,-55.5264 L -44.9531,-56.0762 L -45.6309,-56.7539 L -46.1816,-57.5391
 L -46.5859,-58.4082 L -46.835,-59.334 L -46.918,-60.2891 L -46.835,-61.2441 L -46.5859,-62.1709 L -46.1816,-63.0391
 L -45.6309,-63.8252 L -44.9531,-64.5029 L -44.168,-65.0527 L -43.2988,-65.458 L -42.373,-65.7061 L -41.418,-65.7891
 L -40.4629,-65.7061 L -39.5371,-65.458 L -38.668,-65.0527 L -37.8828,-64.5029 L -37.2051,-63.8252 L -36.6553,-63.0391
 L -36.25,-62.1709 L -36.002,-61.2441 L -35.918,-60.2891 L -36.002,-59.334 L -36.25,-58.4082 L -36.6553,-57.5391
 L -37.2051,-56.7539 L -37.8828,-56.0762 L -38.668,-55.5264 L -39.5371,-55.1211 L -40.4629,-54.873 L -41.418,-54.7891
 z
M 53.2002,-26.8506 L 53.7715,-28.2295 L 53.7783,-43.8291 L 53.208,-45.208 L 51.8291,-45.7803 L -44.2705,-45.8203
 L -45.6494,-45.249 L -46.2217,-43.8711 L -46.2285,-28.2705 L -45.6572,-26.8916 L -44.2793,-26.3203 L 51.8213,-26.2803
 z
M 71.5615,-26.4053 L 73.0771,-26.8105 L 74.499,-27.4736 L 75.7842,-28.374 L 76.8936,-29.4834 L 77.793,-30.7686
 L 78.4561,-32.1895 L 78.8623,-33.7051 L 78.999,-35.2686 L 78.8623,-36.8311 L 78.4561,-38.3467 L 77.793,-39.7686
 L 76.8936,-41.0527 L 75.7842,-42.1621 L 74.499,-43.0625 L 73.0771,-43.7256 L 71.5615,-44.1318 L 69.999,-44.2686
 L 68.4365,-44.1318 L 66.9209,-43.7256 L 65.499,-43.0625 L 64.2139,-42.1621 L 63.1045,-41.0527 L 62.2051,-39.7686
 L 61.542,-38.3467 L 61.1357,-36.8311 L 60.999,-35.2686 L 61.1357,-33.7051 L 61.542,-32.1895 L 62.2051,-30.7686
 L 63.1045,-29.4834 L 64.2139,-28.374 L 65.499,-27.4736 L 66.9209,-26.8105 L 68.4365,-26.4053 L 69.999,-26.2686
 z
M 69.0439,-29.8516 L 68.1182,-30.0996 L 67.249,-30.5049 L 66.4639,-31.0547 L 65.7861,-31.7324 L 65.2354,-32.5186
 L 64.8311,-33.3867 L 64.582,-34.3135 L 64.499,-35.2686 L 64.582,-36.2236 L 64.8311,-37.1494 L 65.2354,-38.0186
 L 65.7861,-38.8037 L 66.4639,-39.4814 L 67.249,-40.0312 L 68.1182,-40.4365 L 69.0439,-40.6846 L 69.999,-40.7686
 L 70.9541,-40.6846 L 71.8799,-40.4365 L 72.749,-40.0312 L 73.5342,-39.4814 L 74.2119,-38.8037 L 74.7617,-38.0186
 L 75.167,-37.1494 L 75.415,-36.2236 L 75.499,-35.2686 L 75.415,-34.3135 L 75.167,-33.3867 L 74.7617,-32.5186
 L 74.2119,-31.7324 L 73.5342,-31.0547 L 72.749,-30.5049 L 71.8799,-30.0996 L 70.9541,-29.8516 L 69.999,-29.7686
 z
M -62.8096,-26.4053 L -61.2949,-26.8105 L -59.873,-27.4736 L -58.5879,-28.374 L -57.4785,-29.4834 L -56.5781,-30.7686
 L -55.915,-32.1895 L -55.5098,-33.7051 L -55.373,-35.2686 L -55.5098,-36.8311 L -55.915,-38.3467 L -56.5781,-39.7686
 L -57.4785,-41.0527 L -58.5879,-42.1621 L -59.873,-43.0625 L -61.2949,-43.7256 L -62.8096,-44.1318 L -64.373,-44.2686
 L -65.9355,-44.1318 L -67.4512,-43.7256 L -68.873,-43.0625 L -70.1582,-42.1621 L -71.2676,-41.0527 L -72.167,-39.7686
 L -72.8301,-38.3467 L -73.2363,-36.8311 L -73.373,-35.2686 L -73.2363,-33.7051 L -72.8301,-32.1895 L -72.167,-30.7686
 L -71.2676,-29.4834 L -70.1582,-28.374 L -68.873,-27.4736 L -67.4512,-26.8105 L -65.9355,-26.4053 L -64.373,-26.2686
 z
M -65.3281,-29.8516 L -66.2539,-30.0996 L -67.123,-30.5049 L -67.9082,-31.0547 L -68.5859,-31.7324 L -69.1357,-32.5186
 L -69.541,-33.3867 L -69.7891,-34.3135 L -69.873,-35.2686 L -69.7891,-36.2236 L -69.541,-37.1494 L -69.1357,-38.0186
 L -68.5859,-38.8037 L -67.9082,-39.4814 L -67.123,-40.0312 L -66.2539,-40.4365 L -65.3281,-40.6846 L -64.373,-40.7686
 L -63.418,-40.6846 L -62.4912,-40.4365 L -61.623,-40.0312 L -60.8369,-39.4814 L -60.1592,-38.8037 L -59.6094,-38.0186
 L -59.2041,-37.1494 L -58.9561,-36.2236 L -58.873,-35.2686 L -58.9561,-34.3135 L -59.2041,-33.3867 L -59.6094,-32.5186
 L -60.1592,-31.7324 L -60.8369,-31.0547 L -61.623,-30.5049 L -62.4912,-30.0996 L -63.418,-29.8516 L -64.373,-29.7686
 z
M 96.7451,-25.2734 L 98.1123,-25.6406 L 99.3965,-26.2393 L 100.556,-27.0508 L 101.557,-28.0527 L 102.37,-29.2119
 L 102.968,-30.4961 L 103.334,-31.8633 L 103.458,-33.2744 L 103.334,-34.6846 L 102.968,-36.0527 L 102.37,-37.3359
 L 101.557,-38.4961 L 100.556,-39.4971 L 99.3965,-40.3096 L 98.1123,-40.9082 L 96.7451,-41.2744 L 95.334,-41.3975
 L 93.9238,-41.2744 L 92.5557,-40.9082 L 91.2725,-40.3096 L 90.1123,-39.4971 L 89.1113,-38.4961 L 88.2988,-37.3359
 L 87.7002,-36.0527 L 87.334,-34.6846 L 87.2109,-33.2744 L 87.334,-31.8633 L 87.7002,-30.4961 L 88.2988,-29.2119
 L 89.1113,-28.0527 L 90.1123,-27.0508 L 91.2725,-26.2393 L 92.5557,-25.6406 L 93.9238,-25.2734 L 95.334,-25.1504
 z
M -93.0625,-25.2734 L -91.6943,-25.6406 L -90.4111,-26.2393 L -89.251,-27.0508 L -88.25,-28.0527 L -87.4375,-29.2119
 L -86.8389,-30.4961 L -86.4727,-31.8633 L -86.3496,-33.2744 L -86.4727,-34.6846 L -86.8389,-36.0527 L -87.4375,-37.3359
 L -88.25,-38.4961 L -89.251,-39.4971 L -90.4111,-40.3096 L -91.6943,-40.9082 L -93.0625,-41.2744 L -94.4727,-41.3975
 L -95.8838,-41.2744 L -97.251,-40.9082 L -98.5352,-40.3096 L -99.6943,-39.4971 L -100.696,-38.4961 L -101.508,-37.3359
 L -102.107,-36.0527 L -102.473,-34.6846 L -102.596,-33.2744 L -102.473,-31.8633 L -102.107,-30.4961 L -101.508,-29.2119
 L -100.696,-28.0527 L -99.6943,-27.0508 L -98.5352,-26.2393 L -97.251,-25.6406 L -95.8838,-25.2734 L -94.4727,-25.1504
 z
M 80.9017,41.2215 L 66.9131,25.6855 L 50,13.3974 L 30.9017,4.89435 L 10.4528,0.547806 L 10,0.547806
 L 10,-10 L -10,-10 L -10,0.547806 L -10.4528,0.547806 L -30.9017,4.89435 L -50,13.3974
 L -66.9131,25.6855 L -80.9017,41.2215 L -88.8567,55 L 88.8567,55 z
" stroke="black" fill="lightgray" stroke-width="0.5"/>
</svg>
