solid OpenSCAD_Model
  facet normal -1 0 0
    outer loop
      vertex -20 7.5 -10
      vertex -20 4.5 -5
      vertex -20 7.5 10
    endloop
  endfacet
  facet normal -1 0 0
    outer loop
      vertex -20 7.5 -10
      vertex -20 -4.5 -5
      vertex -20 4.5 -5
    endloop
  endfacet
  facet normal -1 0 0
    outer loop
      vertex -20 -7.5 -10
      vertex -20 -4.5 -5
      vertex -20 7.5 -10
    endloop
  endfacet
  facet normal -1 0 0
    outer loop
      vertex -20 -7.5 10
      vertex -20 -4.5 -5
      vertex -20 -7.5 -10
    endloop
  endfacet
  facet normal -1 0 0
    outer loop
      vertex -20 -4.5 -5
      vertex -20 -7.5 10
      vertex -20 -4.5 10
    endloop
  endfacet
  facet normal -1 -0 0
    outer loop
      vertex -20 7.5 10
      vertex -20 4.5 -5
      vertex -20 4.5 10
    endloop
  endfacet
  facet normal -0 0 1
    outer loop
      vertex -20 -4.5 10
      vertex 20 -7.5 10
      vertex 20 -4.5 10
    endloop
  endfacet
  facet normal 0 0 1
    outer loop
      vertex 20 -7.5 10
      vertex -20 -4.5 10
      vertex -20 -7.5 10
    endloop
  endfacet
  facet normal -0 0 1
    outer loop
      vertex -20 7.5 10
      vertex 20 4.5 10
      vertex 20 7.5 10
    endloop
  endfacet
  facet normal 0 0 1
    outer loop
      vertex 20 4.5 10
      vertex -20 7.5 10
      vertex -20 4.5 10
    endloop
  endfacet
  facet normal 1 0 0
    outer loop
      vertex 20 -4.5 10
      vertex 20 -7.5 10
      vertex 20 -4.5 -5
    endloop
  endfacet
  facet normal 1 0 0
    outer loop
      vertex 20 4.5 -5
      vertex 20 7.5 10
      vertex 20 4.5 10
    endloop
  endfacet
  facet normal 1 0 0
    outer loop
      vertex 20 7.5 10
      vertex 20 4.5 -5
      vertex 20 7.5 -10
    endloop
  endfacet
  facet normal 1 -0 0
    outer loop
      vertex 20 -4.5 -5
      vertex 20 7.5 -10
      vertex 20 4.5 -5
    endloop
  endfacet
  facet normal 1 0 0
    outer loop
      vertex 20 -4.5 -5
      vertex 20 -7.5 -10
      vertex 20 7.5 -10
    endloop
  endfacet
  facet normal 1 0 0
    outer loop
      vertex 20 -7.5 -10
      vertex 20 -4.5 -5
      vertex 20 -7.5 10
    endloop
  endfacet
  facet normal 0 1 -0
    outer loop
      vertex 20 7.5 -10
      vertex -20 7.5 10
      vertex 20 7.5 10
    endloop
  endfacet
  facet normal 0 1 0
    outer loop
      vertex -20 7.5 10
      vertex 20 7.5 -10
      vertex -20 7.5 -10
    endloop
  endfacet
  facet normal 0 0 -1
    outer loop
      vertex -20 -7.5 -10
      vertex 20 7.5 -10
      vertex 20 -7.5 -10
    endloop
  endfacet
  facet normal -0 0 -1
    outer loop
      vertex 20 7.5 -10
      vertex -20 -7.5 -10
      vertex -20 7.5 -10
    endloop
  endfacet
  facet normal 0 -1 0
    outer loop
      vertex -20 -7.5 -10
      vertex 20 -7.5 10
      vertex -20 -7.5 10
    endloop
  endfacet
  facet normal 0 -1 -0
    outer loop
      vertex 20 -7.5 10
      vertex -20 -7.5 -10
      vertex 20 -7.5 -10
    endloop
  endfacet
  facet normal 0 -1 0
    outer loop
      vertex -20 4.5 -5
      vertex 20 4.5 10
      vertex -20 4.5 10
    endloop
  endfacet
  facet normal 0 -1 -0
    outer loop
      vertex 20 4.5 10
      vertex -20 4.5 -5
      vertex 20 4.5 -5
    endloop
  endfacet
  facet normal -0 0 1
    outer loop
      vertex -20 4.5 -5
      vertex 20 -4.5 -5
      vertex 20 4.5 -5
    endloop
  endfacet
  facet normal 0 0 1
    outer loop
      vertex 20 -4.5 -5
      vertex -20 4.5 -5
      vertex -20 -4.5 -5
    endloop
  endfacet
  facet normal 0 1 -0
    outer loop
      vertex 20 -4.5 -5
      vertex -20 -4.5 10
      vertex 20 -4.5 10
    endloop
  endfacet
  facet normal 0 1 0
    outer loop
      vertex -20 -4.5 10
      vertex 20 -4.5 -5
      vertex -20 -4.5 -5
    endloop
  endfacet
endsolid OpenSCAD_Model
