<?xml version="1.0" standalone="no"?>
<!DOCTYPE svg PUBLIC "-//W3C//DTD SVG 1.1//EN" "http://www.w3.org/Graphics/SVG/1.1/DTD/svg11.dtd">
<svg width="268mm" height="133mm" viewBox="-208 0 268 133" xmlns="http://www.w3.org/2000/svg" version="1.1">
<title>OpenSCAD Model</title>
<path d="
M 30,77.9423 L 40.1478,66.883 L 48.541,52.9007 L 54.8127,36.6063 L 58.6888,18.7121 L 60,-0
 L 50,-0 L 49.7127,4.09999 L 55,4.09999 L 55,5.89999 L 49.5866,5.89999 L 48.9074,15.5934
 L 45.6773,30.5052 L 42.3691,39.1 L 47.5,39.1 L 47.5,40.9 L 41.6763,40.9 L 40.4508,44.0839
 L 33.4565,55.7359 L 25,64.9519 L 20,68.2911 L 20,74.1 L 25,74.1 L 25,75.9
 L 20,75.9 L 20,84 L 20.9294,84 z
M -20,75.9 L -25,75.9 L -25,74.1 L -20,74.1 L -20,68.2911 L -25,64.9519
 L -33.4565,55.7359 L -40.4508,44.0839 L -41.6763,40.9 L -47.5,40.9 L -47.5,39.1 L -42.3691,39.1
 L -45.6773,30.5052 L -48.9074,15.5934 L -49.5866,5.89999 L -55,5.89999 L -55,4.09999 L -49.7127,4.09999
 L -50,-0 L -60,-0 L -58.6888,18.7121 L -54.8127,36.6063 L -48.541,52.9007 L -40.1478,66.883
 L -30,77.9423 L -20.9294,84 L -20,84 z
M -150.9,129.699 L -149.1,129.699 L -149.1,132.185 L -143.99,132.185 L -132.232,129.686 L -121.25,124.796
 L -111.525,117.731 L -110.112,116.161 L -111.872,114.401 L -110.666,113.061 L -108.906,114.822 L -103.482,108.798
 L -97.4711,98.3873 L -93.7565,86.9549 L -92.5946,75.9 L -95.0946,75.9 L -95,75 L -95.0946,74.1
 L -92.5946,74.1 L -93.7565,63.0451 L -97.4711,51.6127 L -103.482,41.2024 L -108.906,35.1784 L -110.666,36.9389
 L -111.872,35.5993 L -110.112,33.8389 L -111.525,32.2692 L -121.25,25.2036 L -132.232,20.3143 L -143.99,17.815
 L -149.1,17.815 L -149.1,20.3013 L -150.9,20.3013 L -150.9,17.815 L -156.01,17.815 L -167.768,20.3143
 L -178.75,25.2036 L -188.475,32.2692 L -189.888,33.8389 L -188.128,35.5993 L -189.334,36.9389 L -191.094,35.1784
 L -196.518,41.2024 L -202.529,51.6127 L -206.243,63.0451 L -207.405,74.1 L -204.905,74.1 L -205,75
 L -204.905,75.9 L -207.405,75.9 L -206.243,86.9549 L -202.529,98.3873 L -196.518,108.798 L -191.094,114.822
 L -189.334,113.061 L -188.128,114.401 L -189.888,116.161 L -188.475,117.731 L -178.75,124.796 L -167.768,129.686
 L -156.01,132.185 L -150.9,132.185 z
M -155.488,127.212 L -166.223,124.93 L -176.25,120.466 L -185.129,114.015 L -192.473,105.859 L -197.961,96.3537
 L -201.353,85.9154 L -202.5,75 L -201.353,64.0846 L -197.961,53.6463 L -192.473,44.1413 L -185.129,35.9849
 L -176.25,29.5337 L -166.223,25.0695 L -155.488,22.7876 L -144.512,22.7876 L -133.777,25.0695 L -123.75,29.5337
 L -114.871,35.9849 L -107.527,44.1413 L -102.039,53.6463 L -98.6473,64.0846 L -97.5,75 L -98.6473,85.9154
 L -102.039,96.3537 L -107.527,105.859 L -114.871,114.015 L -123.75,120.466 L -133.777,124.93 L -144.512,127.212
 z
M -150.9,122.24 L -149.1,122.24 L -149.1,124.726 L -144.774,124.726 L -134.549,122.553 L -125,118.301
 L -116.543,112.157 L -115.393,110.88 L -117.154,109.119 L -115.948,107.78 L -114.187,109.54 L -109.549,104.389
 L -104.323,95.3368 L -101.093,85.3956 L -100.095,75.9 L -102.595,75.9 L -102.5,75 L -102.595,74.1
 L -100.095,74.1 L -101.093,64.6044 L -104.323,54.6632 L -109.549,45.6107 L -114.187,40.4599 L -115.948,42.2203
 L -117.154,40.8808 L -115.393,39.1203 L -116.543,37.8428 L -125,31.6987 L -134.549,27.4472 L -144.774,25.2739
 L -149.1,25.2739 L -149.1,27.7602 L -150.9,27.7602 L -150.9,25.2739 L -155.226,25.2739 L -165.451,27.4472
 L -175,31.6987 L -183.457,37.8428 L -184.607,39.1203 L -182.846,40.8808 L -184.052,42.2203 L -185.813,40.4599
 L -190.451,45.6107 L -195.677,54.6632 L -198.907,64.6044 L -199.905,74.1 L -197.405,74.1 L -197.5,75
 L -197.405,75.9 L -199.905,75.9 L -198.907,85.3956 L -195.677,95.3368 L -190.451,104.389 L -185.813,109.54
 L -184.052,107.78 L -182.846,109.119 L -184.607,110.88 L -183.457,112.157 L -175,118.301 L -165.451,122.553
 L -155.226,124.726 L -150.9,124.726 z
M -154.704,119.753 L -163.906,117.798 L -172.5,113.971 L -180.111,108.442 L -186.406,101.45 L -191.11,93.3031
 L -194.017,84.356 L -195,75 L -194.017,65.644 L -191.11,56.6969 L -186.406,48.5497 L -180.111,41.5585
 L -172.5,36.0289 L -163.906,32.2025 L -154.704,30.2465 L -145.296,30.2465 L -136.094,32.2025 L -127.5,36.0289
 L -119.889,41.5585 L -113.594,48.5497 L -108.89,56.6969 L -105.983,65.644 L -105,75 L -105.983,84.356
 L -108.89,93.3031 L -113.594,101.45 L -119.889,108.442 L -127.5,113.971 L -136.094,117.798 L -145.296,119.753
 z
M -150.9,99.863 L -149.1,99.863 L -149.1,102.349 L -147.125,102.349 L -141.502,101.154 L -136.25,98.8157
 L -131.599,95.4365 L -131.238,95.0352 L -132.998,93.2747 L -131.792,91.9352 L -130.032,93.6957 L -127.752,91.1641
 L -124.878,86.1853 L -123.101,80.7176 L -122.595,75.9 L -125.095,75.9 L -125,75 L -125.095,74.1
 L -122.595,74.1 L -123.101,69.2824 L -124.878,63.8147 L -127.752,58.8359 L -130.032,56.3043 L -131.792,58.0648
 L -132.998,56.7253 L -131.238,54.9648 L -131.599,54.5635 L -136.25,51.1843 L -141.502,48.8459 L -147.125,47.6507
 L -149.1,47.6507 L -149.1,50.137 L -150.9,50.137 L -150.9,47.6507 L -152.875,47.6507 L -158.498,48.8459
 L -163.75,51.1843 L -168.401,54.5635 L -168.762,54.9648 L -167.002,56.7253 L -168.208,58.0648 L -169.968,56.3043
 L -172.248,58.8359 L -175.122,63.8147 L -176.899,69.2824 L -177.405,74.1 L -174.905,74.1 L -175,75
 L -174.905,75.9 L -177.405,75.9 L -176.899,80.7176 L -175.122,86.1853 L -172.248,91.1641 L -169.968,93.6957
 L -168.208,91.9352 L -167.002,93.2747 L -168.762,95.0352 L -168.401,95.4365 L -163.75,98.8157 L -158.498,101.154
 L -152.875,102.349 L -150.9,102.349 z
M -152.352,97.3767 L -156.953,96.3988 L -161.25,94.4856 L -165.055,91.7207 L -168.203,88.2252 L -170.555,84.1516
 L -172.008,79.678 L -172.5,75 L -172.008,70.322 L -170.555,65.8484 L -168.203,61.7748 L -165.055,58.2793
 L -161.25,55.5144 L -156.953,53.6012 L -152.352,52.6233 L -147.648,52.6233 L -143.047,53.6012 L -138.75,55.5144
 L -134.945,58.2793 L -131.797,61.7748 L -129.445,65.8484 L -127.992,70.322 L -127.5,75 L -127.992,79.678
 L -129.445,84.1516 L -131.797,88.2252 L -134.945,91.7207 L -138.75,94.4856 L -143.047,96.3988 L -147.648,97.3767
 z
" stroke="black" fill="lightgray" stroke-width="0.5"/>
</svg>
