  0
SECTION
  2
BLOCKS
  0
ENDSEC
  0
SECTION
  2
ENTITIES
  0
LINE
  8
0
 10
30
 20
-77.9423
 11
40.1478
 21
-66.883
  0
LINE
  8
0
 10
40.1478
 20
-66.883
 11
48.541
 21
-52.9007
  0
LINE
  8
0
 10
48.541
 20
-52.9007
 11
54.8127
 21
-36.6063
  0
LINE
  8
0
 10
54.8127
 20
-36.6063
 11
58.6888
 21
-18.7121
  0
LINE
  8
0
 10
58.6888
 20
-18.7121
 11
60
 21
0
  0
LINE
  8
0
 10
60
 20
0
 11
50
 21
0
  0
LINE
  8
0
 10
50
 20
0
 11
49.7127
 21
-4.09999
  0
LINE
  8
0
 10
49.7127
 20
-4.09999
 11
55
 21
-4.09999
  0
LINE
  8
0
 10
55
 20
-4.09999
 11
55
 21
-5.89999
  0
LINE
  8
0
 10
55
 20
-5.89999
 11
49.5866
 21
-5.89999
  0
LINE
  8
0
 10
49.5866
 20
-5.89999
 11
48.9074
 21
-15.5934
  0
LINE
  8
0
 10
48.9074
 20
-15.5934
 11
45.6773
 21
-30.5052
  0
LINE
  8
0
 10
45.6773
 20
-30.5052
 11
42.3691
 21
-39.1
  0
LINE
  8
0
 10
42.3691
 20
-39.1
 11
47.5
 21
-39.1
  0
LINE
  8
0
 10
47.5
 20
-39.1
 11
47.5
 21
-40.9
  0
LINE
  8
0
 10
47.5
 20
-40.9
 11
41.6763
 21
-40.9
  0
LINE
  8
0
 10
41.6763
 20
-40.9
 11
40.4508
 21
-44.0839
  0
LINE
  8
0
 10
40.4508
 20
-44.0839
 11
33.4565
 21
-55.7359
  0
LINE
  8
0
 10
33.4565
 20
-55.7359
 11
25
 21
-64.9519
  0
LINE
  8
0
 10
25
 20
-64.9519
 11
20
 21
-68.2911
  0
LINE
  8
0
 10
20
 20
-68.2911
 11
20
 21
-74.1
  0
LINE
  8
0
 10
20
 20
-74.1
 11
25
 21
-74.1
  0
LINE
  8
0
 10
25
 20
-74.1
 11
25
 21
-75.9
  0
LINE
  8
0
 10
25
 20
-75.9
 11
20
 21
-75.9
  0
LINE
  8
0
 10
20
 20
-75.9
 11
20
 21
-84
  0
LINE
  8
0
 10
20
 20
-84
 11
20.9294
 21
-84
  0
LINE
  8
0
 10
20.9294
 20
-84
 11
30
 21
-77.9423
  0
LINE
  8
0
 10
-20
 20
-75.9
 11
-25
 21
-75.9
  0
LINE
  8
0
 10
-25
 20
-75.9
 11
-25
 21
-74.1
  0
LINE
  8
0
 10
-25
 20
-74.1
 11
-20
 21
-74.1
  0
LINE
  8
0
 10
-20
 20
-74.1
 11
-20
 21
-68.2911
  0
LINE
  8
0
 10
-20
 20
-68.2911
 11
-25
 21
-64.9519
  0
LINE
  8
0
 10
-25
 20
-64.9519
 11
-33.4565
 21
-55.7359
  0
LINE
  8
0
 10
-33.4565
 20
-55.7359
 11
-40.4508
 21
-44.0839
  0
LINE
  8
0
 10
-40.4508
 20
-44.0839
 11
-41.6763
 21
-40.9
  0
LINE
  8
0
 10
-41.6763
 20
-40.9
 11
-47.5
 21
-40.9
  0
LINE
  8
0
 10
-47.5
 20
-40.9
 11
-47.5
 21
-39.1
  0
LINE
  8
0
 10
-47.5
 20
-39.1
 11
-42.3691
 21
-39.1
  0
LINE
  8
0
 10
-42.3691
 20
-39.1
 11
-45.6773
 21
-30.5052
  0
LINE
  8
0
 10
-45.6773
 20
-30.5052
 11
-48.9074
 21
-15.5934
  0
LINE
  8
0
 10
-48.9074
 20
-15.5934
 11
-49.5866
 21
-5.89999
  0
LINE
  8
0
 10
-49.5866
 20
-5.89999
 11
-55
 21
-5.89999
  0
LINE
  8
0
 10
-55
 20
-5.89999
 11
-55
 21
-4.09999
  0
LINE
  8
0
 10
-55
 20
-4.09999
 11
-49.7127
 21
-4.09999
  0
LINE
  8
0
 10
-49.7127
 20
-4.09999
 11
-50
 21
0
  0
LINE
  8
0
 10
-50
 20
0
 11
-60
 21
0
  0
LINE
  8
0
 10
-60
 20
0
 11
-58.6888
 21
-18.7121
  0
LINE
  8
0
 10
-58.6888
 20
-18.7121
 11
-54.8127
 21
-36.6063
  0
LINE
  8
0
 10
-54.8127
 20
-36.6063
 11
-48.541
 21
-52.9007
  0
LINE
  8
0
 10
-48.541
 20
-52.9007
 11
-40.1478
 21
-66.883
  0
LINE
  8
0
 10
-40.1478
 20
-66.883
 11
-30
 21
-77.9423
  0
LINE
  8
0
 10
-30
 20
-77.9423
 11
-20.9294
 21
-84
  0
LINE
  8
0
 10
-20.9294
 20
-84
 11
-20
 21
-84
  0
LINE
  8
0
 10
-20
 20
-84
 11
-20
 21
-75.9
  0
LINE
  8
0
 10
-150.9
 20
-129.699
 11
-149.1
 21
-129.699
  0
LINE
  8
0
 10
-149.1
 20
-129.699
 11
-149.1
 21
-132.185
  0
LINE
  8
0
 10
-149.1
 20
-132.185
 11
-143.99
 21
-132.185
  0
LINE
  8
0
 10
-143.99
 20
-132.185
 11
-132.232
 21
-129.686
  0
LINE
  8
0
 10
-132.232
 20
-129.686
 11
-121.25
 21
-124.796
  0
LINE
  8
0
 10
-121.25
 20
-124.796
 11
-111.525
 21
-117.731
  0
LINE
  8
0
 10
-111.525
 20
-117.731
 11
-110.112
 21
-116.161
  0
LINE
  8
0
 10
-110.112
 20
-116.161
 11
-111.872
 21
-114.401
  0
LINE
  8
0
 10
-111.872
 20
-114.401
 11
-110.666
 21
-113.061
  0
LINE
  8
0
 10
-110.666
 20
-113.061
 11
-108.906
 21
-114.822
  0
LINE
  8
0
 10
-108.906
 20
-114.822
 11
-103.482
 21
-108.798
  0
LINE
  8
0
 10
-103.482
 20
-108.798
 11
-97.4711
 21
-98.3873
  0
LINE
  8
0
 10
-97.4711
 20
-98.3873
 11
-93.7565
 21
-86.9549
  0
LINE
  8
0
 10
-93.7565
 20
-86.9549
 11
-92.5946
 21
-75.9
  0
LINE
  8
0
 10
-92.5946
 20
-75.9
 11
-95.0946
 21
-75.9
  0
LINE
  8
0
 10
-95.0946
 20
-75.9
 11
-95
 21
-75
  0
LINE
  8
0
 10
-95
 20
-75
 11
-95.0946
 21
-74.1
  0
LINE
  8
0
 10
-95.0946
 20
-74.1
 11
-92.5946
 21
-74.1
  0
LINE
  8
0
 10
-92.5946
 20
-74.1
 11
-93.7565
 21
-63.0451
  0
LINE
  8
0
 10
-93.7565
 20
-63.0451
 11
-97.4711
 21
-51.6127
  0
LINE
  8
0
 10
-97.4711
 20
-51.6127
 11
-103.482
 21
-41.2024
  0
LINE
  8
0
 10
-103.482
 20
-41.2024
 11
-108.906
 21
-35.1784
  0
LINE
  8
0
 10
-108.906
 20
-35.1784
 11
-110.666
 21
-36.9389
  0
LINE
  8
0
 10
-110.666
 20
-36.9389
 11
-111.872
 21
-35.5993
  0
LINE
  8
0
 10
-111.872
 20
-35.5993
 11
-110.112
 21
-33.8389
  0
LINE
  8
0
 10
-110.112
 20
-33.8389
 11
-111.525
 21
-32.2692
  0
LINE
  8
0
 10
-111.525
 20
-32.2692
 11
-121.25
 21
-25.2036
  0
LINE
  8
0
 10
-121.25
 20
-25.2036
 11
-132.232
 21
-20.3143
  0
LINE
  8
0
 10
-132.232
 20
-20.3143
 11
-143.99
 21
-17.815
  0
LINE
  8
0
 10
-143.99
 20
-17.815
 11
-149.1
 21
-17.815
  0
LINE
  8
0
 10
-149.1
 20
-17.815
 11
-149.1
 21
-20.3013
  0
LINE
  8
0
 10
-149.1
 20
-20.3013
 11
-150.9
 21
-20.3013
  0
LINE
  8
0
 10
-150.9
 20
-20.3013
 11
-150.9
 21
-17.815
  0
LINE
  8
0
 10
-150.9
 20
-17.815
 11
-156.01
 21
-17.815
  0
LINE
  8
0
 10
-156.01
 20
-17.815
 11
-167.768
 21
-20.3143
  0
LINE
  8
0
 10
-167.768
 20
-20.3143
 11
-178.75
 21
-25.2036
  0
LINE
  8
0
 10
-178.75
 20
-25.2036
 11
-188.475
 21
-32.2692
  0
LINE
  8
0
 10
-188.475
 20
-32.2692
 11
-189.888
 21
-33.8389
  0
LINE
  8
0
 10
-189.888
 20
-33.8389
 11
-188.128
 21
-35.5993
  0
LINE
  8
0
 10
-188.128
 20
-35.5993
 11
-189.334
 21
-36.9389
  0
LINE
  8
0
 10
-189.334
 20
-36.9389
 11
-191.094
 21
-35.1784
  0
LINE
  8
0
 10
-191.094
 20
-35.1784
 11
-196.518
 21
-41.2024
  0
LINE
  8
0
 10
-196.518
 20
-41.2024
 11
-202.529
 21
-51.6127
  0
LINE
  8
0
 10
-202.529
 20
-51.6127
 11
-206.243
 21
-63.0451
  0
LINE
  8
0
 10
-206.243
 20
-63.0451
 11
-207.405
 21
-74.1
  0
LINE
  8
0
 10
-207.405
 20
-74.1
 11
-204.905
 21
-74.1
  0
LINE
  8
0
 10
-204.905
 20
-74.1
 11
-205
 21
-75
  0
LINE
  8
0
 10
-205
 20
-75
 11
-204.905
 21
-75.9
  0
LINE
  8
0
 10
-204.905
 20
-75.9
 11
-207.405
 21
-75.9
  0
LINE
  8
0
 10
-207.405
 20
-75.9
 11
-206.243
 21
-86.9549
  0
LINE
  8
0
 10
-206.243
 20
-86.9549
 11
-202.529
 21
-98.3873
  0
LINE
  8
0
 10
-202.529
 20
-98.3873
 11
-196.518
 21
-108.798
  0
LINE
  8
0
 10
-196.518
 20
-108.798
 11
-191.094
 21
-114.822
  0
LINE
  8
0
 10
-191.094
 20
-114.822
 11
-189.334
 21
-113.061
  0
LINE
  8
0
 10
-189.334
 20
-113.061
 11
-188.128
 21
-114.401
  0
LINE
  8
0
 10
-188.128
 20
-114.401
 11
-189.888
 21
-116.161
  0
LINE
  8
0
 10
-189.888
 20
-116.161
 11
-188.475
 21
-117.731
  0
LINE
  8
0
 10
-188.475
 20
-117.731
 11
-178.75
 21
-124.796
  0
LINE
  8
0
 10
-178.75
 20
-124.796
 11
-167.768
 21
-129.686
  0
LINE
  8
0
 10
-167.768
 20
-129.686
 11
-156.01
 21
-132.185
  0
LINE
  8
0
 10
-156.01
 20
-132.185
 11
-150.9
 21
-132.185
  0
LINE
  8
0
 10
-150.9
 20
-132.185
 11
-150.9
 21
-129.699
  0
LINE
  8
0
 10
-155.488
 20
-127.212
 11
-166.223
 21
-124.93
  0
LINE
  8
0
 10
-166.223
 20
-124.93
 11
-176.25
 21
-120.466
  0
LINE
  8
0
 10
-176.25
 20
-120.466
 11
-185.129
 21
-114.015
  0
LINE
  8
0
 10
-185.129
 20
-114.015
 11
-192.473
 21
-105.859
  0
LINE
  8
0
 10
-192.473
 20
-105.859
 11
-197.961
 21
-96.3537
  0
LINE
  8
0
 10
-197.961
 20
-96.3537
 11
-201.353
 21
-85.9154
  0
LINE
  8
0
 10
-201.353
 20
-85.9154
 11
-202.5
 21
-75
  0
LINE
  8
0
 10
-202.5
 20
-75
 11
-201.353
 21
-64.0846
  0
LINE
  8
0
 10
-201.353
 20
-64.0846
 11
-197.961
 21
-53.6463
  0
LINE
  8
0
 10
-197.961
 20
-53.6463
 11
-192.473
 21
-44.1413
  0
LINE
  8
0
 10
-192.473
 20
-44.1413
 11
-185.129
 21
-35.9849
  0
LINE
  8
0
 10
-185.129
 20
-35.9849
 11
-176.25
 21
-29.5337
  0
LINE
  8
0
 10
-176.25
 20
-29.5337
 11
-166.223
 21
-25.0695
  0
LINE
  8
0
 10
-166.223
 20
-25.0695
 11
-155.488
 21
-22.7876
  0
LINE
  8
0
 10
-155.488
 20
-22.7876
 11
-144.512
 21
-22.7876
  0
LINE
  8
0
 10
-144.512
 20
-22.7876
 11
-133.777
 21
-25.0695
  0
LINE
  8
0
 10
-133.777
 20
-25.0695
 11
-123.75
 21
-29.5337
  0
LINE
  8
0
 10
-123.75
 20
-29.5337
 11
-114.871
 21
-35.9849
  0
LINE
  8
0
 10
-114.871
 20
-35.9849
 11
-107.527
 21
-44.1413
  0
LINE
  8
0
 10
-107.527
 20
-44.1413
 11
-102.039
 21
-53.6463
  0
LINE
  8
0
 10
-102.039
 20
-53.6463
 11
-98.6473
 21
-64.0846
  0
LINE
  8
0
 10
-98.6473
 20
-64.0846
 11
-97.5
 21
-75
  0
LINE
  8
0
 10
-97.5
 20
-75
 11
-98.6473
 21
-85.9154
  0
LINE
  8
0
 10
-98.6473
 20
-85.9154
 11
-102.039
 21
-96.3537
  0
LINE
  8
0
 10
-102.039
 20
-96.3537
 11
-107.527
 21
-105.859
  0
LINE
  8
0
 10
-107.527
 20
-105.859
 11
-114.871
 21
-114.015
  0
LINE
  8
0
 10
-114.871
 20
-114.015
 11
-123.75
 21
-120.466
  0
LINE
  8
0
 10
-123.75
 20
-120.466
 11
-133.777
 21
-124.93
  0
LINE
  8
0
 10
-133.777
 20
-124.93
 11
-144.512
 21
-127.212
  0
LINE
  8
0
 10
-144.512
 20
-127.212
 11
-155.488
 21
-127.212
  0
LINE
  8
0
 10
-150.9
 20
-122.24
 11
-149.1
 21
-122.24
  0
LINE
  8
0
 10
-149.1
 20
-122.24
 11
-149.1
 21
-124.726
  0
LINE
  8
0
 10
-149.1
 20
-124.726
 11
-144.774
 21
-124.726
  0
LINE
  8
0
 10
-144.774
 20
-124.726
 11
-134.549
 21
-122.553
  0
LINE
  8
0
 10
-134.549
 20
-122.553
 11
-125
 21
-118.301
  0
LINE
  8
0
 10
-125
 20
-118.301
 11
-116.543
 21
-112.157
  0
LINE
  8
0
 10
-116.543
 20
-112.157
 11
-115.393
 21
-110.88
  0
LINE
  8
0
 10
-115.393
 20
-110.88
 11
-117.154
 21
-109.119
  0
LINE
  8
0
 10
-117.154
 20
-109.119
 11
-115.948
 21
-107.78
  0
LINE
  8
0
 10
-115.948
 20
-107.78
 11
-114.187
 21
-109.54
  0
LINE
  8
0
 10
-114.187
 20
-109.54
 11
-109.549
 21
-104.389
  0
LINE
  8
0
 10
-109.549
 20
-104.389
 11
-104.323
 21
-95.3368
  0
LINE
  8
0
 10
-104.323
 20
-95.3368
 11
-101.093
 21
-85.3956
  0
LINE
  8
0
 10
-101.093
 20
-85.3956
 11
-100.095
 21
-75.9
  0
LINE
  8
0
 10
-100.095
 20
-75.9
 11
-102.595
 21
-75.9
  0
LINE
  8
0
 10
-102.595
 20
-75.9
 11
-102.5
 21
-75
  0
LINE
  8
0
 10
-102.5
 20
-75
 11
-102.595
 21
-74.1
  0
LINE
  8
0
 10
-102.595
 20
-74.1
 11
-100.095
 21
-74.1
  0
LINE
  8
0
 10
-100.095
 20
-74.1
 11
-101.093
 21
-64.6044
  0
LINE
  8
0
 10
-101.093
 20
-64.6044
 11
-104.323
 21
-54.6632
  0
LINE
  8
0
 10
-104.323
 20
-54.6632
 11
-109.549
 21
-45.6107
  0
LINE
  8
0
 10
-109.549
 20
-45.6107
 11
-114.187
 21
-40.4599
  0
LINE
  8
0
 10
-114.187
 20
-40.4599
 11
-115.948
 21
-42.2203
  0
LINE
  8
0
 10
-115.948
 20
-42.2203
 11
-117.154
 21
-40.8808
  0
LINE
  8
0
 10
-117.154
 20
-40.8808
 11
-115.393
 21
-39.1203
  0
LINE
  8
0
 10
-115.393
 20
-39.1203
 11
-116.543
 21
-37.8428
  0
LINE
  8
0
 10
-116.543
 20
-37.8428
 11
-125
 21
-31.6987
  0
LINE
  8
0
 10
-125
 20
-31.6987
 11
-134.549
 21
-27.4472
  0
LINE
  8
0
 10
-134.549
 20
-27.4472
 11
-144.774
 21
-25.2739
  0
LINE
  8
0
 10
-144.774
 20
-25.2739
 11
-149.1
 21
-25.2739
  0
LINE
  8
0
 10
-149.1
 20
-25.2739
 11
-149.1
 21
-27.7602
  0
LINE
  8
0
 10
-149.1
 20
-27.7602
 11
-150.9
 21
-27.7602
  0
LINE
  8
0
 10
-150.9
 20
-27.7602
 11
-150.9
 21
-25.2739
  0
LINE
  8
0
 10
-150.9
 20
-25.2739
 11
-155.226
 21
-25.2739
  0
LINE
  8
0
 10
-155.226
 20
-25.2739
 11
-165.451
 21
-27.4472
  0
LINE
  8
0
 10
-165.451
 20
-27.4472
 11
-175
 21
-31.6987
  0
LINE
  8
0
 10
-175
 20
-31.6987
 11
-183.457
 21
-37.8428
  0
LINE
  8
0
 10
-183.457
 20
-37.8428
 11
-184.607
 21
-39.1203
  0
LINE
  8
0
 10
-184.607
 20
-39.1203
 11
-182.846
 21
-40.8808
  0
LINE
  8
0
 10
-182.846
 20
-40.8808
 11
-184.052
 21
-42.2203
  0
LINE
  8
0
 10
-184.052
 20
-42.2203
 11
-185.813
 21
-40.4599
  0
LINE
  8
0
 10
-185.813
 20
-40.4599
 11
-190.451
 21
-45.6107
  0
LINE
  8
0
 10
-190.451
 20
-45.6107
 11
-195.677
 21
-54.6632
  0
LINE
  8
0
 10
-195.677
 20
-54.6632
 11
-198.907
 21
-64.6044
  0
LINE
  8
0
 10
-198.907
 20
-64.6044
 11
-199.905
 21
-74.1
  0
LINE
  8
0
 10
-199.905
 20
-74.1
 11
-197.405
 21
-74.1
  0
LINE
  8
0
 10
-197.405
 20
-74.1
 11
-197.5
 21
-75
  0
LINE
  8
0
 10
-197.5
 20
-75
 11
-197.405
 21
-75.9
  0
LINE
  8
0
 10
-197.405
 20
-75.9
 11
-199.905
 21
-75.9
  0
LINE
  8
0
 10
-199.905
 20
-75.9
 11
-198.907
 21
-85.3956
  0
LINE
  8
0
 10
-198.907
 20
-85.3956
 11
-195.677
 21
-95.3368
  0
LINE
  8
0
 10
-195.677
 20
-95.3368
 11
-190.451
 21
-104.389
  0
LINE
  8
0
 10
-190.451
 20
-104.389
 11
-185.813
 21
-109.54
  0
LINE
  8
0
 10
-185.813
 20
-109.54
 11
-184.052
 21
-107.78
  0
LINE
  8
0
 10
-184.052
 20
-107.78
 11
-182.846
 21
-109.119
  0
LINE
  8
0
 10
-182.846
 20
-109.119
 11
-184.607
 21
-110.88
  0
LINE
  8
0
 10
-184.607
 20
-110.88
 11
-183.457
 21
-112.157
  0
LINE
  8
0
 10
-183.457
 20
-112.157
 11
-175
 21
-118.301
  0
LINE
  8
0
 10
-175
 20
-118.301
 11
-165.451
 21
-122.553
  0
LINE
  8
0
 10
-165.451
 20
-122.553
 11
-155.226
 21
-124.726
  0
LINE
  8
0
 10
-155.226
 20
-124.726
 11
-150.9
 21
-124.726
  0
LINE
  8
0
 10
-150.9
 20
-124.726
 11
-150.9
 21
-122.24
  0
LINE
  8
0
 10
-154.704
 20
-119.753
 11
-163.906
 21
-117.798
  0
LINE
  8
0
 10
-163.906
 20
-117.798
 11
-172.5
 21
-113.971
  0
LINE
  8
0
 10
-172.5
 20
-113.971
 11
-180.111
 21
-108.442
  0
LINE
  8
0
 10
-180.111
 20
-108.442
 11
-186.406
 21
-101.45
  0
LINE
  8
0
 10
-186.406
 20
-101.45
 11
-191.11
 21
-93.3031
  0
LINE
  8
0
 10
-191.11
 20
-93.3031
 11
-194.017
 21
-84.356
  0
LINE
  8
0
 10
-194.017
 20
-84.356
 11
-195
 21
-75
  0
LINE
  8
0
 10
-195
 20
-75
 11
-194.017
 21
-65.644
  0
LINE
  8
0
 10
-194.017
 20
-65.644
 11
-191.11
 21
-56.6969
  0
LINE
  8
0
 10
-191.11
 20
-56.6969
 11
-186.406
 21
-48.5497
  0
LINE
  8
0
 10
-186.406
 20
-48.5497
 11
-180.111
 21
-41.5585
  0
LINE
  8
0
 10
-180.111
 20
-41.5585
 11
-172.5
 21
-36.0289
  0
LINE
  8
0
 10
-172.5
 20
-36.0289
 11
-163.906
 21
-32.2025
  0
LINE
  8
0
 10
-163.906
 20
-32.2025
 11
-154.704
 21
-30.2465
  0
LINE
  8
0
 10
-154.704
 20
-30.2465
 11
-145.296
 21
-30.2465
  0
LINE
  8
0
 10
-145.296
 20
-30.2465
 11
-136.094
 21
-32.2025
  0
LINE
  8
0
 10
-136.094
 20
-32.2025
 11
-127.5
 21
-36.0289
  0
LINE
  8
0
 10
-127.5
 20
-36.0289
 11
-119.889
 21
-41.5585
  0
LINE
  8
0
 10
-119.889
 20
-41.5585
 11
-113.594
 21
-48.5497
  0
LINE
  8
0
 10
-113.594
 20
-48.5497
 11
-108.89
 21
-56.6969
  0
LINE
  8
0
 10
-108.89
 20
-56.6969
 11
-105.983
 21
-65.644
  0
LINE
  8
0
 10
-105.983
 20
-65.644
 11
-105
 21
-75
  0
LINE
  8
0
 10
-105
 20
-75
 11
-105.983
 21
-84.356
  0
LINE
  8
0
 10
-105.983
 20
-84.356
 11
-108.89
 21
-93.3031
  0
LINE
  8
0
 10
-108.89
 20
-93.3031
 11
-113.594
 21
-101.45
  0
LINE
  8
0
 10
-113.594
 20
-101.45
 11
-119.889
 21
-108.442
  0
LINE
  8
0
 10
-119.889
 20
-108.442
 11
-127.5
 21
-113.971
  0
LINE
  8
0
 10
-127.5
 20
-113.971
 11
-136.094
 21
-117.798
  0
LINE
  8
0
 10
-136.094
 20
-117.798
 11
-145.296
 21
-119.753
  0
LINE
  8
0
 10
-145.296
 20
-119.753
 11
-154.704
 21
-119.753
  0
LINE
  8
0
 10
-150.9
 20
-99.863
 11
-149.1
 21
-99.863
  0
LINE
  8
0
 10
-149.1
 20
-99.863
 11
-149.1
 21
-102.349
  0
LINE
  8
0
 10
-149.1
 20
-102.349
 11
-147.125
 21
-102.349
  0
LINE
  8
0
 10
-147.125
 20
-102.349
 11
-141.502
 21
-101.154
  0
LINE
  8
0
 10
-141.502
 20
-101.154
 11
-136.25
 21
-98.8157
  0
LINE
  8
0
 10
-136.25
 20
-98.8157
 11
-131.599
 21
-95.4365
  0
LINE
  8
0
 10
-131.599
 20
-95.4365
 11
-131.238
 21
-95.0352
  0
LINE
  8
0
 10
-131.238
 20
-95.0352
 11
-132.998
 21
-93.2747
  0
LINE
  8
0
 10
-132.998
 20
-93.2747
 11
-131.792
 21
-91.9352
  0
LINE
  8
0
 10
-131.792
 20
-91.9352
 11
-130.032
 21
-93.6957
  0
LINE
  8
0
 10
-130.032
 20
-93.6957
 11
-127.752
 21
-91.1641
  0
LINE
  8
0
 10
-127.752
 20
-91.1641
 11
-124.878
 21
-86.1853
  0
LINE
  8
0
 10
-124.878
 20
-86.1853
 11
-123.101
 21
-80.7176
  0
LINE
  8
0
 10
-123.101
 20
-80.7176
 11
-122.595
 21
-75.9
  0
LINE
  8
0
 10
-122.595
 20
-75.9
 11
-125.095
 21
-75.9
  0
LINE
  8
0
 10
-125.095
 20
-75.9
 11
-125
 21
-75
  0
LINE
  8
0
 10
-125
 20
-75
 11
-125.095
 21
-74.1
  0
LINE
  8
0
 10
-125.095
 20
-74.1
 11
-122.595
 21
-74.1
  0
LINE
  8
0
 10
-122.595
 20
-74.1
 11
-123.101
 21
-69.2824
  0
LINE
  8
0
 10
-123.101
 20
-69.2824
 11
-124.878
 21
-63.8147
  0
LINE
  8
0
 10
-124.878
 20
-63.8147
 11
-127.752
 21
-58.8359
  0
LINE
  8
0
 10
-127.752
 20
-58.8359
 11
-130.032
 21
-56.3043
  0
LINE
  8
0
 10
-130.032
 20
-56.3043
 11
-131.792
 21
-58.0648
  0
LINE
  8
0
 10
-131.792
 20
-58.0648
 11
-132.998
 21
-56.7253
  0
LINE
  8
0
 10
-132.998
 20
-56.7253
 11
-131.238
 21
-54.9648
  0
LINE
  8
0
 10
-131.238
 20
-54.9648
 11
-131.599
 21
-54.5635
  0
LINE
  8
0
 10
-131.599
 20
-54.5635
 11
-136.25
 21
-51.1843
  0
LINE
  8
0
 10
-136.25
 20
-51.1843
 11
-141.502
 21
-48.8459
  0
LINE
  8
0
 10
-141.502
 20
-48.8459
 11
-147.125
 21
-47.6507
  0
LINE
  8
0
 10
-147.125
 20
-47.6507
 11
-149.1
 21
-47.6507
  0
LINE
  8
0
 10
-149.1
 20
-47.6507
 11
-149.1
 21
-50.137
  0
LINE
  8
0
 10
-149.1
 20
-50.137
 11
-150.9
 21
-50.137
  0
LINE
  8
0
 10
-150.9
 20
-50.137
 11
-150.9
 21
-47.6507
  0
LINE
  8
0
 10
-150.9
 20
-47.6507
 11
-152.875
 21
-47.6507
  0
LINE
  8
0
 10
-152.875
 20
-47.6507
 11
-158.498
 21
-48.8459
  0
LINE
  8
0
 10
-158.498
 20
-48.8459
 11
-163.75
 21
-51.1843
  0
LINE
  8
0
 10
-163.75
 20
-51.1843
 11
-168.401
 21
-54.5635
  0
LINE
  8
0
 10
-168.401
 20
-54.5635
 11
-168.762
 21
-54.9648
  0
LINE
  8
0
 10
-168.762
 20
-54.9648
 11
-167.002
 21
-56.7253
  0
LINE
  8
0
 10
-167.002
 20
-56.7253
 11
-168.208
 21
-58.0648
  0
LINE
  8
0
 10
-168.208
 20
-58.0648
 11
-169.968
 21
-56.3043
  0
LINE
  8
0
 10
-169.968
 20
-56.3043
 11
-172.248
 21
-58.8359
  0
LINE
  8
0
 10
-172.248
 20
-58.8359
 11
-175.122
 21
-63.8147
  0
LINE
  8
0
 10
-175.122
 20
-63.8147
 11
-176.899
 21
-69.2824
  0
LINE
  8
0
 10
-176.899
 20
-69.2824
 11
-177.405
 21
-74.1
  0
LINE
  8
0
 10
-177.405
 20
-74.1
 11
-174.905
 21
-74.1
  0
LINE
  8
0
 10
-174.905
 20
-74.1
 11
-175
 21
-75
  0
LINE
  8
0
 10
-175
 20
-75
 11
-174.905
 21
-75.9
  0
LINE
  8
0
 10
-174.905
 20
-75.9
 11
-177.405
 21
-75.9
  0
LINE
  8
0
 10
-177.405
 20
-75.9
 11
-176.899
 21
-80.7176
  0
LINE
  8
0
 10
-176.899
 20
-80.7176
 11
-175.122
 21
-86.1853
  0
LINE
  8
0
 10
-175.122
 20
-86.1853
 11
-172.248
 21
-91.1641
  0
LINE
  8
0
 10
-172.248
 20
-91.1641
 11
-169.968
 21
-93.6957
  0
LINE
  8
0
 10
-169.968
 20
-93.6957
 11
-168.208
 21
-91.9352
  0
LINE
  8
0
 10
-168.208
 20
-91.9352
 11
-167.002
 21
-93.2747
  0
LINE
  8
0
 10
-167.002
 20
-93.2747
 11
-168.762
 21
-95.0352
  0
LINE
  8
0
 10
-168.762
 20
-95.0352
 11
-168.401
 21
-95.4365
  0
LINE
  8
0
 10
-168.401
 20
-95.4365
 11
-163.75
 21
-98.8157
  0
LINE
  8
0
 10
-163.75
 20
-98.8157
 11
-158.498
 21
-101.154
  0
LINE
  8
0
 10
-158.498
 20
-101.154
 11
-152.875
 21
-102.349
  0
LINE
  8
0
 10
-152.875
 20
-102.349
 11
-150.9
 21
-102.349
  0
LINE
  8
0
 10
-150.9
 20
-102.349
 11
-150.9
 21
-99.863
  0
LINE
  8
0
 10
-152.352
 20
-97.3767
 11
-156.953
 21
-96.3988
  0
LINE
  8
0
 10
-156.953
 20
-96.3988
 11
-161.25
 21
-94.4856
  0
LINE
  8
0
 10
-161.25
 20
-94.4856
 11
-165.055
 21
-91.7207
  0
LINE
  8
0
 10
-165.055
 20
-91.7207
 11
-168.203
 21
-88.2252
  0
LINE
  8
0
 10
-168.203
 20
-88.2252
 11
-170.555
 21
-84.1516
  0
LINE
  8
0
 10
-170.555
 20
-84.1516
 11
-172.008
 21
-79.678
  0
LINE
  8
0
 10
-172.008
 20
-79.678
 11
-172.5
 21
-75
  0
LINE
  8
0
 10
-172.5
 20
-75
 11
-172.008
 21
-70.322
  0
LINE
  8
0
 10
-172.008
 20
-70.322
 11
-170.555
 21
-65.8484
  0
LINE
  8
0
 10
-170.555
 20
-65.8484
 11
-168.203
 21
-61.7748
  0
LINE
  8
0
 10
-168.203
 20
-61.7748
 11
-165.055
 21
-58.2793
  0
LINE
  8
0
 10
-165.055
 20
-58.2793
 11
-161.25
 21
-55.5144
  0
LINE
  8
0
 10
-161.25
 20
-55.5144
 11
-156.953
 21
-53.6012
  0
LINE
  8
0
 10
-156.953
 20
-53.6012
 11
-152.352
 21
-52.6233
  0
LINE
  8
0
 10
-152.352
 20
-52.6233
 11
-147.648
 21
-52.6233
  0
LINE
  8
0
 10
-147.648
 20
-52.6233
 11
-143.047
 21
-53.6012
  0
LINE
  8
0
 10
-143.047
 20
-53.6012
 11
-138.75
 21
-55.5144
  0
LINE
  8
0
 10
-138.75
 20
-55.5144
 11
-134.945
 21
-58.2793
  0
LINE
  8
0
 10
-134.945
 20
-58.2793
 11
-131.797
 21
-61.7748
  0
LINE
  8
0
 10
-131.797
 20
-61.7748
 11
-129.445
 21
-65.8484
  0
LINE
  8
0
 10
-129.445
 20
-65.8484
 11
-127.992
 21
-70.322
  0
LINE
  8
0
 10
-127.992
 20
-70.322
 11
-127.5
 21
-75
  0
LINE
  8
0
 10
-127.5
 20
-75
 11
-127.992
 21
-79.678
  0
LINE
  8
0
 10
-127.992
 20
-79.678
 11
-129.445
 21
-84.1516
  0
LINE
  8
0
 10
-129.445
 20
-84.1516
 11
-131.797
 21
-88.2252
  0
LINE
  8
0
 10
-131.797
 20
-88.2252
 11
-134.945
 21
-91.7207
  0
LINE
  8
0
 10
-134.945
 20
-91.7207
 11
-138.75
 21
-94.4856
  0
LINE
  8
0
 10
-138.75
 20
-94.4856
 11
-143.047
 21
-96.3988
  0
LINE
  8
0
 10
-143.047
 20
-96.3988
 11
-147.648
 21
-97.3767
  0
LINE
  8
0
 10
-147.648
 20
-97.3767
 11
-152.352
 21
-97.3767
  0
ENDSEC
  0
SECTION
  2
OBJECTS
  0
DICTIONARY
  0
ENDSEC
  0
EOF
